<svg width="1301" height="1301" viewBox="0 0 1301 1301" fill="none" xmlns="http://www.w3.org/2000/svg">
<circle cx="650.154" cy="650" r="600" fill="white" fill-opacity="0.08"/>
<circle cx="650.154" cy="650" r="599.528" stroke="white" stroke-opacity="0.1" stroke-width="0.943376"/>
<circle cx="650.155" cy="650.155" r="459.192" fill="white" fill-opacity="0.05"/>
<circle cx="650.155" cy="650.155" r="458.692" stroke="white" stroke-opacity="0.1"/>
<circle cx="650.155" cy="650.155" r="304.142" fill="white" fill-opacity="0.04"/>
<circle cx="650.155" cy="650.155" r="303.642" stroke="white" stroke-opacity="0.1"/>
<path opacity="0.3" fill-rule="evenodd" clip-rule="evenodd" d="M650.154 1249C980.973 1249 1249.15 980.819 1249.15 650C1249.15 319.181 980.973 51 650.154 51C319.336 51 51.1543 319.181 51.1543 650C51.1543 980.819 319.336 1249 650.154 1249ZM650.154 1250C981.525 1250 1250.15 981.371 1250.15 650C1250.15 318.629 981.525 50 650.154 50C318.783 50 50.1543 318.629 50.1543 650C50.1543 981.371 318.783 1250 650.154 1250Z" fill="#15086A"/>
<path d="M6.26953 637.477C6.26953 626.553 6.26953 621.091 8.3954 616.919C10.2654 613.249 13.2492 610.265 16.9192 608.395C21.0914 606.27 26.5532 606.27 37.4767 606.27H62.8326C73.7562 606.27 79.2179 606.27 83.3902 608.395C87.0602 610.265 90.044 613.249 91.914 616.919C94.0398 621.091 94.0398 626.553 94.0398 637.477V662.833C94.0398 673.756 94.0398 679.218 91.914 683.39C90.044 687.06 87.0602 690.044 83.3902 691.914C79.2179 694.04 73.7562 694.04 62.8326 694.04H37.4767C26.5532 694.04 21.0914 694.04 16.9192 691.914C13.2492 690.044 10.2654 687.06 8.3954 683.39C6.26953 679.218 6.26953 673.756 6.26953 662.833L6.26953 637.477Z" fill="white"/>
<path d="M69.1223 626.716L50.3548 641.362L31.1582 626.716V626.72L31.1814 626.74V647.249L50.1383 662.212L69.1223 647.826V626.716Z" fill="#EA4335"/>
<path d="M74.0507 623.154L69.1221 626.716V647.827L84.6309 635.92V628.747C84.6309 628.747 82.7483 618.502 74.0507 623.154Z" fill="#FBBC05"/>
<path d="M69.1221 647.827V675.208H81.0088C81.0088 675.208 84.3912 674.86 84.6347 671.004V635.92L69.1221 647.827Z" fill="#34A853"/>
<path d="M31.1823 675.231V647.248L31.1582 647.229L31.1823 675.231Z" fill="#C5221F"/>
<path d="M31.1585 626.72L26.2569 623.177C17.5593 618.526 15.6729 628.767 15.6729 628.767V635.94L31.1585 647.229V626.72Z" fill="#C5221F"/>
<path d="M31.1582 626.72V647.229L31.1823 647.248V626.74L31.1582 626.72Z" fill="#C5221F"/>
<path d="M15.6729 635.943L15.6729 671.027C15.9125 674.887 19.2988 675.231 19.2988 675.231H31.1855L31.1585 647.229L15.6729 635.943Z" fill="#4285F4"/>
<path d="M1294.04 662.832C1294.04 673.755 1294.04 679.217 1291.91 683.389C1290.04 687.059 1287.06 690.043 1283.39 691.913C1279.22 694.039 1273.76 694.039 1262.83 694.039L1237.48 694.039C1226.55 694.039 1221.09 694.039 1216.92 691.913C1213.25 690.043 1210.26 687.059 1208.39 683.389C1206.27 679.217 1206.27 673.755 1206.27 662.832L1206.27 637.476C1206.27 626.552 1206.27 621.091 1208.39 616.918C1210.26 613.248 1213.25 610.265 1216.92 608.395C1221.09 606.269 1226.55 606.269 1237.48 606.269L1262.83 606.269C1273.76 606.269 1279.22 606.269 1283.39 608.395C1287.06 610.265 1290.04 613.248 1291.91 616.918C1294.04 621.091 1294.04 626.552 1294.04 637.476L1294.04 662.832Z" fill="white"/>
<path d="M1231.19 673.593L1249.95 658.946L1269.15 673.593L1269.15 673.589L1269.13 673.569L1269.13 653.06L1250.17 638.097L1231.19 652.482L1231.19 673.593Z" fill="#EA4335"/>
<path d="M1226.26 677.155L1231.19 673.592L1231.19 652.482L1215.68 664.389L1215.68 671.562C1215.68 671.562 1217.56 681.806 1226.26 677.155Z" fill="#FBBC05"/>
<path d="M1231.19 652.482L1231.19 625.101L1219.3 625.101C1219.3 625.101 1215.92 625.449 1215.67 629.305L1215.67 664.389L1231.19 652.482Z" fill="#34A853"/>
<path d="M1269.13 625.078L1269.13 653.06L1269.15 653.08L1269.13 625.078Z" fill="#C5221F"/>
<path d="M1269.15 673.588L1274.05 677.131C1282.75 681.782 1284.64 671.542 1284.64 671.542L1284.64 664.369L1269.15 653.079L1269.15 673.588Z" fill="#C5221F"/>
<path d="M1269.15 673.589L1269.15 653.08L1269.13 653.06L1269.13 673.569L1269.15 673.589Z" fill="#C5221F"/>
<path d="M1284.64 664.365L1284.64 629.281C1284.4 625.422 1281.01 625.077 1281.01 625.077L1269.12 625.077L1269.15 653.08L1284.64 664.365Z" fill="#4285F4"/>
<path d="M662.832 6.26953C673.755 6.26953 679.217 6.26953 683.389 8.3954C687.059 10.2654 690.043 13.2492 691.913 16.9192C694.039 21.0914 694.039 26.5532 694.039 37.4767L694.039 62.8326C694.039 73.7562 694.039 79.2179 691.913 83.3902C690.043 87.0602 687.059 90.044 683.389 91.914C679.217 94.0398 673.755 94.0398 662.832 94.0398L637.476 94.0398C626.552 94.0398 621.091 94.0398 616.918 91.9139C613.248 90.044 610.265 87.0602 608.395 83.3902C606.269 79.2179 606.269 73.7561 606.269 62.8326L606.269 37.4767C606.269 26.5532 606.269 21.0914 608.395 16.9192C610.265 13.2492 613.248 10.2654 616.918 8.39539C621.091 6.26953 626.552 6.26953 637.476 6.26953L662.832 6.26953Z" fill="white"/>
<path d="M673.593 69.1223L658.946 50.3548L673.593 31.1582L673.589 31.1582L673.569 31.1814L653.06 31.1814L638.097 50.1383L652.482 69.1223L673.593 69.1223Z" fill="#EA4335"/>
<path d="M677.155 74.0507L673.592 69.1221L652.482 69.1221L664.389 84.6309L671.562 84.6309C671.562 84.6309 681.806 82.7483 677.155 74.0507Z" fill="#FBBC05"/>
<path d="M652.482 69.1221L625.101 69.1221L625.101 81.0088C625.101 81.0088 625.449 84.3912 629.305 84.6347L664.389 84.6347L652.482 69.1221Z" fill="#34A853"/>
<path d="M625.078 31.1823L653.06 31.1823L653.08 31.1582L625.078 31.1823Z" fill="#C5221F"/>
<path d="M673.588 31.1585L677.131 26.2569C681.782 17.5593 671.542 15.6729 671.542 15.6729L664.369 15.6729L653.079 31.1585L673.588 31.1585Z" fill="#C5221F"/>
<path d="M673.589 31.1582L653.08 31.1582L653.06 31.1823L673.569 31.1823L673.589 31.1582Z" fill="#C5221F"/>
<path d="M664.365 15.6729L629.281 15.6729C625.422 15.9125 625.077 19.2988 625.077 19.2988L625.077 31.1855L653.08 31.1585L664.365 15.6729Z" fill="#4285F4"/>
<path d="M637.477 1294.04C626.553 1294.04 621.091 1294.04 616.919 1291.91C613.249 1290.04 610.265 1287.06 608.395 1283.39C606.27 1279.22 606.27 1273.76 606.27 1262.83L606.27 1237.48C606.27 1226.55 606.27 1221.09 608.395 1216.92C610.265 1213.25 613.249 1210.26 616.919 1208.39C621.091 1206.27 626.553 1206.27 637.477 1206.27L662.833 1206.27C673.756 1206.27 679.218 1206.27 683.39 1208.39C687.06 1210.26 690.044 1213.25 691.914 1216.92C694.04 1221.09 694.04 1226.55 694.04 1237.48L694.04 1262.83C694.04 1273.76 694.04 1279.22 691.914 1283.39C690.044 1287.06 687.06 1290.04 683.39 1291.91C679.218 1294.04 673.756 1294.04 662.833 1294.04L637.477 1294.04Z" fill="white"/>
<path d="M626.716 1231.19L641.362 1249.95L626.716 1269.15L626.72 1269.15L626.74 1269.13L647.249 1269.13L662.212 1250.17L647.826 1231.19L626.716 1231.19Z" fill="#EA4335"/>
<path d="M623.154 1226.26L626.716 1231.19L647.827 1231.19L635.92 1215.68L628.747 1215.68C628.747 1215.68 618.502 1217.56 623.154 1226.26Z" fill="#FBBC05"/>
<path d="M647.827 1231.19L675.208 1231.19L675.208 1219.3C675.208 1219.3 674.86 1215.92 671.004 1215.67L635.92 1215.67L647.827 1231.19Z" fill="#34A853"/>
<path d="M675.231 1269.13L647.248 1269.13L647.229 1269.15L675.231 1269.13Z" fill="#C5221F"/>
<path d="M626.72 1269.15L623.177 1274.05C618.526 1282.75 628.767 1284.64 628.767 1284.64L635.94 1284.64L647.229 1269.15L626.72 1269.15Z" fill="#C5221F"/>
<path d="M626.72 1269.15L647.229 1269.15L647.248 1269.13L626.74 1269.13L626.72 1269.15Z" fill="#C5221F"/>
<path d="M635.943 1284.64L671.027 1284.64C674.887 1284.4 675.231 1281.01 675.231 1281.01L675.231 1269.12L647.229 1269.15L635.943 1284.64Z" fill="#4285F4"/>
<path d="M204.612 184.953C212.06 177.504 215.784 173.78 220.079 172.385C223.856 171.157 227.925 171.157 231.703 172.385C235.997 173.78 239.721 177.504 247.169 184.953L266.675 204.458C274.123 211.906 277.847 215.63 279.243 219.925C280.47 223.702 280.47 227.771 279.243 231.549C277.847 235.843 274.123 239.567 266.675 247.016L247.169 266.521C239.721 273.969 235.997 277.693 231.703 279.089C227.925 280.316 223.856 280.316 220.079 279.089C215.784 277.693 212.06 273.969 204.612 266.521L185.106 247.016C177.658 239.567 173.934 235.843 172.539 231.549C171.311 227.771 171.311 223.702 172.539 219.925C173.934 215.63 177.658 211.906 185.106 204.458L204.612 184.953Z" fill="white"/>
<path d="M257.579 227.901C255.81 223.357 253.443 218.973 250.488 214.87C249.319 215.173 247.823 215.657 246.686 216.095C243.465 211.814 239.748 208.098 235.536 204.946C235.975 203.809 236.447 202.301 236.746 201.128C232.64 198.17 228.248 195.803 223.701 194.037C208.295 196.71 197.754 203.798 189.928 213.351C191.188 220.536 193.48 226.428 196.326 231.63C198.604 231.339 200.855 230.859 203.058 230.183C202.123 228.211 201.371 226.178 200.799 224.119C201.391 224.225 201.986 224.313 202.577 224.381C207.075 235.931 215.793 244.649 227.247 249.051C227.319 249.646 227.406 250.241 227.509 250.829C225.442 250.257 223.406 249.501 221.433 248.566C220.761 250.765 220.274 253.016 219.987 255.298C225.192 258.147 231.088 260.444 238.277 261.7C249.363 252.64 255.354 241.163 257.579 227.901ZM211.346 224.081C208.937 221.673 209.075 217.585 211.647 215.012C214.22 212.439 218.269 212.256 220.72 214.707C223.171 217.158 223.033 221.246 220.415 223.78C217.846 226.356 213.797 226.532 211.346 224.081ZM227.547 240.282C225.138 237.873 225.275 233.785 227.848 231.213C230.421 228.64 234.47 228.457 236.921 230.908C239.371 233.359 239.234 237.447 236.616 239.981C234.043 242.553 229.997 242.733 227.547 240.282Z" fill="#5865F2"/>
<path d="M1095.7 1115.05C1088.25 1122.5 1084.52 1126.22 1080.23 1127.62C1076.45 1128.84 1072.38 1128.84 1068.61 1127.62C1064.31 1126.22 1060.59 1122.5 1053.14 1115.05L1033.63 1095.54C1026.19 1088.09 1022.46 1084.37 1021.07 1080.08C1019.84 1076.3 1019.84 1072.23 1021.07 1068.45C1022.46 1064.16 1026.19 1060.43 1033.63 1052.99L1053.14 1033.48C1060.59 1026.03 1064.31 1022.31 1068.61 1020.91C1072.38 1019.68 1076.45 1019.68 1080.23 1020.91C1084.52 1022.31 1088.25 1026.03 1095.7 1033.48L1115.2 1052.99C1122.65 1060.43 1126.37 1064.16 1127.77 1068.45C1129 1072.23 1129 1076.3 1127.77 1080.08C1126.37 1084.37 1122.65 1088.09 1115.2 1095.54L1095.7 1115.05Z" fill="white"/>
<path d="M1042.73 1072.1C1044.5 1076.64 1046.87 1081.03 1049.82 1085.13C1050.99 1084.83 1052.49 1084.34 1053.62 1083.91C1056.84 1088.19 1060.56 1091.9 1064.77 1095.06C1064.33 1096.19 1063.86 1097.7 1063.56 1098.87C1067.67 1101.83 1072.06 1104.2 1076.61 1105.96C1092.01 1103.29 1102.55 1096.2 1110.38 1086.65C1109.12 1079.46 1106.83 1073.57 1103.98 1068.37C1101.7 1068.66 1099.45 1069.14 1097.25 1069.82C1098.19 1071.79 1098.94 1073.82 1099.51 1075.88C1098.92 1075.78 1098.32 1075.69 1097.73 1075.62C1093.23 1064.07 1084.52 1055.35 1073.06 1050.95C1072.99 1050.36 1072.9 1049.76 1072.8 1049.17C1074.87 1049.74 1076.9 1050.5 1078.88 1051.43C1079.55 1049.24 1080.03 1046.98 1080.32 1044.7C1075.12 1041.85 1069.22 1039.56 1062.03 1038.3C1050.95 1047.36 1044.95 1058.84 1042.73 1072.1ZM1088.96 1075.92C1091.37 1078.33 1091.23 1082.42 1088.66 1084.99C1086.09 1087.56 1082.04 1087.74 1079.59 1085.29C1077.14 1082.84 1077.28 1078.76 1079.89 1076.22C1082.46 1073.64 1086.51 1073.47 1088.96 1075.92ZM1072.76 1059.72C1075.17 1062.13 1075.03 1066.22 1072.46 1068.79C1069.89 1071.36 1065.84 1071.54 1063.39 1069.09C1060.94 1066.64 1061.07 1062.55 1063.69 1060.02C1066.27 1057.45 1070.31 1057.27 1072.76 1059.72Z" fill="#5865F2"/>
<path d="M1115.2 204.457C1122.65 211.905 1126.38 215.629 1127.77 219.923C1129 223.701 1129 227.77 1127.77 231.547C1126.38 235.842 1122.65 239.566 1115.2 247.014L1095.7 266.52C1088.25 273.968 1084.52 277.692 1080.23 279.087C1076.45 280.315 1072.38 280.315 1068.61 279.087C1064.31 277.692 1060.59 273.968 1053.14 266.52L1033.63 247.014C1026.19 239.566 1022.46 235.842 1021.07 231.547C1019.84 227.77 1019.84 223.701 1021.07 219.923C1022.46 215.629 1026.19 211.905 1033.63 204.457L1053.14 184.951C1060.59 177.503 1064.31 173.779 1068.61 172.383C1072.38 171.156 1076.45 171.156 1080.23 172.383C1084.52 173.779 1088.25 177.503 1095.7 184.951L1115.2 204.457Z" fill="white"/>
<path d="M1072.25 257.423C1076.8 255.654 1081.18 253.288 1085.28 250.333C1084.98 249.164 1084.5 247.667 1084.06 246.531C1088.34 243.31 1092.06 239.593 1095.21 235.381C1096.35 235.82 1097.85 236.292 1099.03 236.591C1101.99 232.484 1104.35 228.093 1106.12 223.545C1103.45 208.139 1096.36 197.599 1086.8 189.772C1079.62 191.032 1073.73 193.325 1068.53 196.171C1068.82 198.449 1069.3 200.7 1069.97 202.902C1071.94 201.968 1073.98 201.216 1076.04 200.644C1075.93 201.235 1075.84 201.831 1075.77 202.422C1064.22 206.92 1055.51 215.638 1051.1 227.091C1050.51 227.164 1049.91 227.251 1049.33 227.354C1049.9 225.287 1050.65 223.251 1051.59 221.278C1049.39 220.606 1047.14 220.119 1044.86 219.832C1042.01 225.036 1039.71 230.932 1038.46 238.122C1047.52 249.208 1058.99 255.199 1072.25 257.423ZM1076.07 211.191C1078.48 208.782 1082.57 208.919 1085.14 211.492C1087.72 214.064 1087.9 218.114 1085.45 220.565C1083 223.015 1078.91 222.878 1076.38 220.26C1073.8 217.691 1073.62 213.641 1076.07 211.191ZM1059.87 227.391C1062.28 224.983 1066.37 225.12 1068.94 227.693C1071.52 230.265 1071.7 234.315 1069.25 236.765C1066.8 239.216 1062.71 239.079 1060.17 236.46C1057.6 233.888 1057.42 229.842 1059.87 227.391Z" fill="#5865F2"/>
<path d="M185.107 1095.54C177.659 1088.09 173.934 1084.37 172.539 1080.08C171.312 1076.3 171.312 1072.23 172.539 1068.45C173.934 1064.16 177.659 1060.43 185.107 1052.98L204.612 1033.48C212.061 1026.03 215.785 1022.31 220.079 1020.91C223.857 1019.68 227.926 1019.68 231.703 1020.91C235.997 1022.31 239.722 1026.03 247.17 1033.48L266.675 1052.98C274.124 1060.43 277.848 1064.16 279.243 1068.45C280.47 1072.23 280.47 1076.3 279.243 1080.08C277.848 1084.37 274.124 1088.09 266.675 1095.54L247.17 1115.05C239.722 1122.5 235.997 1126.22 231.703 1127.62C227.926 1128.84 223.857 1128.84 220.079 1127.62C215.785 1126.22 212.061 1122.5 204.612 1115.05L185.107 1095.54Z" fill="white"/>
<path d="M228.055 1042.58C223.511 1044.34 219.127 1046.71 215.025 1049.67C215.327 1050.84 215.811 1052.33 216.25 1053.47C211.969 1056.69 208.252 1060.41 205.1 1064.62C203.963 1064.18 202.455 1063.71 201.282 1063.41C198.324 1067.51 195.957 1071.91 194.192 1076.45C196.864 1091.86 203.953 1102.4 213.505 1110.23C220.691 1108.97 226.583 1106.67 231.784 1103.83C231.493 1101.55 231.013 1099.3 230.338 1097.1C228.365 1098.03 226.332 1098.78 224.273 1099.36C224.38 1098.76 224.467 1098.17 224.535 1097.58C236.085 1093.08 244.803 1084.36 249.205 1072.91C249.8 1072.84 250.395 1072.75 250.983 1072.65C250.411 1074.71 249.655 1076.75 248.721 1078.72C250.919 1079.39 253.171 1079.88 255.452 1080.17C258.302 1074.96 260.598 1069.07 261.855 1061.88C252.794 1050.79 241.318 1044.8 228.055 1042.58ZM224.235 1088.81C221.827 1091.22 217.739 1091.08 215.166 1088.51C212.594 1085.93 212.411 1081.89 214.861 1079.43C217.312 1076.98 221.4 1077.12 223.934 1079.74C226.511 1082.31 226.686 1086.36 224.235 1088.81ZM240.436 1072.61C238.028 1075.02 233.94 1074.88 231.367 1072.31C228.795 1069.73 228.611 1065.68 231.062 1063.23C233.513 1060.78 237.601 1060.92 240.135 1063.54C242.708 1066.11 242.887 1070.16 240.436 1072.61Z" fill="#5865F2"/>
<path d="M232.967 646.875C237.282 646.875 240.779 643.377 240.779 639.063C240.779 634.748 237.281 631.251 232.967 631.251C228.652 631.251 225.154 634.749 225.154 639.063V646.875H232.967ZM211.092 646.875C215.407 646.875 218.904 643.377 218.904 639.062V617.188C218.904 612.874 215.407 609.376 211.092 609.376C206.777 609.376 203.279 612.874 203.279 617.188V639.062C203.279 643.377 206.777 646.875 211.092 646.875Z" fill="#2EB67D"/>
<path d="M167.341 653.125C163.027 653.125 159.529 656.623 159.529 660.937C159.529 665.252 163.027 668.749 167.341 668.749C171.656 668.749 175.154 665.251 175.154 660.937V653.125H167.341ZM189.217 653.125C184.902 653.125 181.404 656.623 181.404 660.938V682.812C181.404 687.126 184.902 690.624 189.217 690.624C193.532 690.624 197.029 687.126 197.029 682.812V660.938C197.029 656.623 193.532 653.125 189.217 653.125Z" fill="#E01E5A"/>
<path d="M203.28 682.813C203.28 687.128 206.777 690.625 211.091 690.625C215.406 690.625 218.903 687.127 218.903 682.813C218.903 678.498 215.406 675 211.091 675L203.28 675L203.28 682.813ZM203.28 660.937C203.28 665.252 206.777 668.75 211.092 668.75L232.966 668.75C237.281 668.75 240.778 665.252 240.778 660.938C240.778 656.623 237.281 653.125 232.966 653.125L211.092 653.125C206.777 653.125 203.28 656.623 203.28 660.937Z" fill="#ECB22E"/>
<path d="M197.029 617.187C197.029 612.872 193.531 609.375 189.217 609.375C184.903 609.375 181.405 612.873 181.405 617.187C181.405 621.502 184.903 625 189.218 625L197.029 625L197.029 617.187ZM197.029 639.063C197.029 634.748 193.531 631.25 189.216 631.25L167.343 631.25C163.028 631.25 159.53 634.748 159.53 639.062C159.53 643.377 163.028 646.875 167.343 646.875L189.216 646.875C193.531 646.875 197.029 643.377 197.029 639.063Z" fill="#36C5F0"/>
<path d="M1067.34 653.125C1063.03 653.125 1059.53 656.623 1059.53 660.937C1059.53 665.252 1063.03 668.749 1067.34 668.749C1071.66 668.749 1075.15 665.251 1075.15 660.937L1075.15 653.125L1067.34 653.125ZM1089.22 653.125C1084.9 653.125 1081.4 656.623 1081.4 660.938L1081.4 682.812C1081.4 687.126 1084.9 690.624 1089.22 690.624C1093.53 690.624 1097.03 687.126 1097.03 682.812L1097.03 660.938C1097.03 656.623 1093.53 653.125 1089.22 653.125Z" fill="#2EB67D"/>
<path d="M1132.97 646.875C1137.28 646.875 1140.78 643.377 1140.78 639.063C1140.78 634.748 1137.28 631.251 1132.97 631.251C1128.65 631.251 1125.15 634.749 1125.15 639.063L1125.15 646.875L1132.97 646.875ZM1111.09 646.875C1115.41 646.875 1118.9 643.377 1118.9 639.062L1118.9 617.188C1118.9 612.874 1115.41 609.376 1111.09 609.376C1106.78 609.376 1103.28 612.874 1103.28 617.188L1103.28 639.062C1103.28 643.377 1106.78 646.875 1111.09 646.875Z" fill="#E01E5A"/>
<path d="M1097.03 617.187C1097.03 612.872 1093.53 609.375 1089.22 609.375C1084.9 609.375 1081.41 612.873 1081.41 617.187C1081.41 621.502 1084.9 625 1089.22 625L1097.03 625L1097.03 617.187ZM1097.03 639.063C1097.03 634.748 1093.53 631.25 1089.22 631.25L1067.34 631.25C1063.03 631.25 1059.53 634.748 1059.53 639.062C1059.53 643.377 1063.03 646.875 1067.34 646.875L1089.22 646.875C1093.53 646.875 1097.03 643.377 1097.03 639.063Z" fill="#ECB22E"/>
<path d="M1103.28 682.813C1103.28 687.128 1106.78 690.625 1111.09 690.625C1115.41 690.625 1118.9 687.127 1118.9 682.813C1118.9 678.498 1115.41 675 1111.09 675L1103.28 675L1103.28 682.813ZM1103.28 660.937C1103.28 665.252 1106.78 668.75 1111.09 668.75L1132.97 668.75C1137.28 668.75 1140.78 665.252 1140.78 660.938C1140.78 656.623 1137.28 653.125 1132.97 653.125L1111.09 653.125C1106.78 653.125 1103.28 656.623 1103.28 660.937Z" fill="#36C5F0"/>
<path d="M232.966 646.865C237.281 646.865 240.778 643.367 240.778 639.053C240.778 634.739 237.281 631.241 232.966 631.241C228.651 631.241 225.153 634.739 225.153 639.054V646.865H232.966ZM211.091 646.865C215.406 646.865 218.903 643.367 218.903 639.052V617.179C218.903 612.864 215.406 609.366 211.091 609.366C206.776 609.366 203.278 612.864 203.278 617.179V639.052C203.278 643.367 206.776 646.865 211.091 646.865Z" fill="#2EB67D"/>
<path d="M167.34 653.116C163.026 653.116 159.528 656.613 159.528 660.927C159.528 665.242 163.026 668.739 167.34 668.739C171.655 668.739 175.153 665.241 175.153 660.927V653.116H167.34ZM189.216 653.116C184.901 653.116 181.403 656.613 181.403 660.928V682.802C181.403 687.116 184.901 690.614 189.216 690.614C193.531 690.614 197.028 687.116 197.028 682.802V660.928C197.028 656.613 193.531 653.116 189.216 653.116Z" fill="#E01E5A"/>
<path d="M203.279 682.803C203.279 687.118 206.776 690.615 211.091 690.615C215.405 690.615 218.902 687.117 218.902 682.803C218.902 678.488 215.405 674.99 211.09 674.99L203.279 674.99L203.279 682.803ZM203.279 660.928C203.279 665.242 206.776 668.74 211.091 668.74L232.965 668.74C237.28 668.74 240.777 665.242 240.777 660.928C240.777 656.613 237.28 653.115 232.965 653.115L211.091 653.115C206.776 653.115 203.279 656.613 203.279 660.928Z" fill="#ECB22E"/>
<path d="M197.028 617.177C197.028 612.863 193.53 609.365 189.216 609.365C184.902 609.365 181.404 612.863 181.404 617.177C181.404 621.492 184.902 624.99 189.217 624.99L197.028 624.99L197.028 617.177ZM197.028 639.053C197.028 634.738 193.53 631.24 189.215 631.24L167.342 631.24C163.027 631.24 159.529 634.738 159.529 639.053C159.529 643.367 163.027 646.865 167.342 646.865L189.215 646.865C193.53 646.865 197.028 643.367 197.028 639.053Z" fill="#36C5F0"/>
<g clip-path="url(#clip0_5295_6384)">
<path d="M657.558 209.403C658.662 209.403 659.558 210.299 659.558 211.403L659.558 248.154C659.558 249.258 658.662 250.154 657.558 250.154L636.048 250.154C624.795 250.154 615.672 241.031 615.672 229.779C615.672 218.526 624.795 209.403 636.048 209.403L657.558 209.403Z" fill="url(#paint0_linear_5295_6384)"/>
<path d="M663.827 178.057C664.932 178.057 665.827 178.952 665.827 180.057L665.827 226.211C665.827 227.316 664.932 228.211 663.827 228.211L631.346 228.211C617.496 228.211 606.269 216.984 606.269 203.134C606.269 189.284 617.496 178.057 631.346 178.057L663.827 178.057Z" fill="url(#paint1_linear_5295_6384)"/>
<circle cx="675.232" cy="234.48" r="9.40396" transform="rotate(90 675.232 234.48)" fill="#34439E"/>
<circle cx="675.232" cy="234.48" r="9.40396" transform="rotate(90 675.232 234.48)" fill="url(#paint2_linear_5295_6384)"/>
<circle cx="681.5" cy="206.268" r="12.5386" transform="rotate(90 681.5 206.268)" fill="url(#paint3_linear_5295_6384)"/>
<mask id="mask0_5295_6384" style="mask-type:alpha" maskUnits="userSpaceOnUse" x="606" y="178" width="95" height="51">
<path d="M668.962 203.134C668.962 211.79 675.979 218.807 684.635 218.807C693.292 218.807 700.309 211.79 700.309 203.134C700.309 194.478 693.292 187.461 684.635 187.461C675.979 187.461 668.962 194.478 668.962 203.134Z" fill="url(#paint4_linear_5295_6384)"/>
<path d="M665.827 181.899C665.827 179.777 664.107 178.057 661.985 178.057L631.346 178.057C617.496 178.057 606.269 189.284 606.269 203.134C606.269 216.984 617.496 228.211 631.346 228.211L661.985 228.211C664.107 228.211 665.827 226.491 665.827 224.369L665.827 181.899Z" fill="url(#paint5_linear_5295_6384)"/>
</mask>
<g mask="url(#mask0_5295_6384)">
<path d="M669.097 171.787C670.754 171.787 672.097 173.13 672.097 174.787L672.097 209.538C672.097 211.194 670.754 212.538 669.097 212.538L618.673 212.538C617.016 212.538 615.673 211.194 615.673 209.538L615.673 171.787L669.097 171.787Z" fill="black" fill-opacity="0.3"/>
</g>
<rect x="678.366" y="149.845" width="56.4238" height="56.4238" rx="2" transform="rotate(90 678.366 149.845)" fill="url(#paint6_linear_5295_6384)"/>
<path d="M665.827 190.595L665.827 165.518L660.076 165.518L660.076 174.906L634.481 174.906L634.481 181.207L660.076 181.207L660.076 190.595L665.827 190.595Z" fill="white"/>
</g>
<g clip-path="url(#clip1_5295_6384)">
<path d="M642.751 1090.6C641.646 1090.6 640.751 1089.7 640.751 1088.6L640.751 1051.85C640.751 1050.74 641.646 1049.85 642.751 1049.85L664.261 1049.85C675.514 1049.85 684.636 1058.97 684.636 1070.22C684.636 1081.47 675.514 1090.6 664.261 1090.6L642.751 1090.6Z" fill="url(#paint7_linear_5295_6384)"/>
<path d="M636.481 1121.94C635.377 1121.94 634.481 1121.05 634.481 1119.94L634.481 1073.79C634.481 1072.68 635.377 1071.79 636.481 1071.79L668.963 1071.79C682.812 1071.79 694.04 1083.02 694.04 1096.87C694.04 1110.71 682.812 1121.94 668.963 1121.94L636.481 1121.94Z" fill="url(#paint8_linear_5295_6384)"/>
<circle cx="625.077" cy="1065.52" r="9.40396" transform="rotate(-90 625.077 1065.52)" fill="#34439E"/>
<circle cx="625.077" cy="1065.52" r="9.40396" transform="rotate(-90 625.077 1065.52)" fill="url(#paint9_linear_5295_6384)"/>
<circle cx="618.808" cy="1093.73" r="12.5386" transform="rotate(-90 618.808 1093.73)" fill="url(#paint10_linear_5295_6384)"/>
<mask id="mask1_5295_6384" style="mask-type:alpha" maskUnits="userSpaceOnUse" x="600" y="1071" width="95" height="51">
<path d="M631.347 1096.87C631.347 1088.21 624.33 1081.19 615.673 1081.19C607.017 1081.19 600 1088.21 600 1096.87C600 1105.52 607.017 1112.54 615.673 1112.54C624.33 1112.54 631.347 1105.52 631.347 1096.87Z" fill="url(#paint11_linear_5295_6384)"/>
<path d="M634.481 1118.1C634.481 1120.22 636.202 1121.94 638.324 1121.94L668.962 1121.94C682.812 1121.94 694.04 1110.72 694.04 1096.87C694.04 1083.02 682.812 1071.79 668.962 1071.79L638.324 1071.79C636.202 1071.79 634.481 1073.51 634.481 1075.63L634.481 1118.1Z" fill="url(#paint12_linear_5295_6384)"/>
</mask>
<g mask="url(#mask1_5295_6384)">
<path d="M631.212 1128.21C629.555 1128.21 628.212 1126.87 628.212 1125.21L628.212 1090.46C628.212 1088.8 629.555 1087.46 631.212 1087.46L681.636 1087.46C683.293 1087.46 684.636 1088.8 684.636 1090.46L684.636 1128.21L631.212 1128.21Z" fill="black" fill-opacity="0.3"/>
</g>
<rect x="621.942" y="1150.15" width="56.4238" height="56.4238" rx="2" transform="rotate(-90 621.942 1150.15)" fill="url(#paint13_linear_5295_6384)"/>
<path d="M634.481 1109.4L634.481 1134.48L640.233 1134.48L640.233 1125.09L665.828 1125.09L665.828 1118.79L640.233 1118.79L640.233 1109.4L634.481 1109.4Z" fill="white"/>
</g>
<g clip-path="url(#clip2_5295_6384)">
<path d="M657.558 209.403C658.662 209.403 659.558 210.299 659.558 211.403L659.558 248.154C659.558 249.258 658.662 250.154 657.558 250.154L636.048 250.154C624.795 250.154 615.672 241.031 615.672 229.779C615.672 218.526 624.795 209.403 636.048 209.403L657.558 209.403Z" fill="url(#paint14_linear_5295_6384)"/>
<path d="M663.827 178.057C664.932 178.057 665.827 178.952 665.827 180.057L665.827 226.211C665.827 227.316 664.932 228.211 663.827 228.211L631.346 228.211C617.496 228.211 606.269 216.984 606.269 203.134C606.269 189.284 617.496 178.057 631.346 178.057L663.827 178.057Z" fill="url(#paint15_linear_5295_6384)"/>
<circle cx="675.232" cy="234.48" r="9.40396" transform="rotate(90 675.232 234.48)" fill="#34439E"/>
<circle cx="675.232" cy="234.48" r="9.40396" transform="rotate(90 675.232 234.48)" fill="url(#paint16_linear_5295_6384)"/>
<circle cx="681.5" cy="206.268" r="12.5386" transform="rotate(90 681.5 206.268)" fill="url(#paint17_linear_5295_6384)"/>
<mask id="mask2_5295_6384" style="mask-type:alpha" maskUnits="userSpaceOnUse" x="606" y="178" width="95" height="51">
<path d="M668.962 203.134C668.962 211.79 675.979 218.807 684.635 218.807C693.292 218.807 700.309 211.79 700.309 203.134C700.309 194.478 693.292 187.461 684.635 187.461C675.979 187.461 668.962 194.478 668.962 203.134Z" fill="url(#paint18_linear_5295_6384)"/>
<path d="M665.827 181.899C665.827 179.777 664.107 178.057 661.985 178.057L631.346 178.057C617.496 178.057 606.269 189.284 606.269 203.134C606.269 216.984 617.496 228.211 631.346 228.211L661.985 228.211C664.107 228.211 665.827 226.491 665.827 224.369L665.827 181.899Z" fill="url(#paint19_linear_5295_6384)"/>
</mask>
<g mask="url(#mask2_5295_6384)">
<path d="M669.097 171.787C670.754 171.787 672.097 173.13 672.097 174.787L672.097 209.538C672.097 211.194 670.754 212.538 669.097 212.538L618.673 212.538C617.016 212.538 615.673 211.194 615.673 209.538L615.673 171.787L669.097 171.787Z" fill="black" fill-opacity="0.3"/>
</g>
<rect x="678.366" y="149.845" width="56.4238" height="56.4238" rx="2" transform="rotate(90 678.366 149.845)" fill="url(#paint20_linear_5295_6384)"/>
<path d="M665.827 190.595L665.827 165.518L660.076 165.518L660.076 174.906L634.481 174.906L634.481 181.207L660.076 181.207L660.076 190.595L665.827 190.595Z" fill="white"/>
</g>
<g clip-path="url(#clip3_5295_6384)">
<path d="M642.751 1090.6C641.646 1090.6 640.751 1089.7 640.751 1088.6L640.751 1051.85C640.751 1050.74 641.646 1049.85 642.751 1049.85L664.261 1049.85C675.514 1049.85 684.636 1058.97 684.636 1070.22C684.636 1081.47 675.514 1090.6 664.261 1090.6L642.751 1090.6Z" fill="url(#paint21_linear_5295_6384)"/>
<path d="M636.481 1121.94C635.377 1121.94 634.481 1121.05 634.481 1119.94L634.481 1073.79C634.481 1072.68 635.377 1071.79 636.481 1071.79L668.963 1071.79C682.812 1071.79 694.04 1083.02 694.04 1096.87C694.04 1110.71 682.812 1121.94 668.963 1121.94L636.481 1121.94Z" fill="url(#paint22_linear_5295_6384)"/>
<circle cx="625.077" cy="1065.52" r="9.40396" transform="rotate(-90 625.077 1065.52)" fill="#34439E"/>
<circle cx="625.077" cy="1065.52" r="9.40396" transform="rotate(-90 625.077 1065.52)" fill="url(#paint23_linear_5295_6384)"/>
<circle cx="618.808" cy="1093.73" r="12.5386" transform="rotate(-90 618.808 1093.73)" fill="url(#paint24_linear_5295_6384)"/>
<mask id="mask3_5295_6384" style="mask-type:alpha" maskUnits="userSpaceOnUse" x="600" y="1071" width="95" height="51">
<path d="M631.347 1096.87C631.347 1088.21 624.33 1081.19 615.673 1081.19C607.017 1081.19 600 1088.21 600 1096.87C600 1105.52 607.017 1112.54 615.673 1112.54C624.33 1112.54 631.347 1105.52 631.347 1096.87Z" fill="url(#paint25_linear_5295_6384)"/>
<path d="M634.481 1118.1C634.481 1120.22 636.202 1121.94 638.324 1121.94L668.962 1121.94C682.812 1121.94 694.04 1110.72 694.04 1096.87C694.04 1083.02 682.812 1071.79 668.962 1071.79L638.324 1071.79C636.202 1071.79 634.481 1073.51 634.481 1075.63L634.481 1118.1Z" fill="url(#paint26_linear_5295_6384)"/>
</mask>
<g mask="url(#mask3_5295_6384)">
<path d="M631.212 1128.21C629.555 1128.21 628.212 1126.87 628.212 1125.21L628.212 1090.46C628.212 1088.8 629.555 1087.46 631.212 1087.46L681.636 1087.46C683.293 1087.46 684.636 1088.8 684.636 1090.46L684.636 1128.21L631.212 1128.21Z" fill="black" fill-opacity="0.3"/>
</g>
<rect x="621.942" y="1150.15" width="56.4238" height="56.4238" rx="2" transform="rotate(-90 621.942 1150.15)" fill="url(#paint27_linear_5295_6384)"/>
<path d="M634.481 1109.4L634.481 1134.48L640.233 1134.48L640.233 1125.09L665.828 1125.09L665.828 1118.79L640.233 1118.79L640.233 1109.4L634.481 1109.4Z" fill="white"/>
</g>
<path d="M232.967 646.875C237.282 646.875 240.779 643.377 240.779 639.063C240.779 634.748 237.281 631.251 232.967 631.251C228.652 631.251 225.154 634.749 225.154 639.063V646.875H232.967ZM211.092 646.875C215.407 646.875 218.904 643.377 218.904 639.062V617.188C218.904 612.874 215.407 609.376 211.092 609.376C206.777 609.376 203.279 612.874 203.279 617.188V639.062C203.279 643.377 206.777 646.875 211.092 646.875Z" fill="#2EB67D"/>
<path d="M167.341 653.125C163.027 653.125 159.529 656.623 159.529 660.937C159.529 665.252 163.027 668.749 167.341 668.749C171.656 668.749 175.154 665.251 175.154 660.937V653.125H167.341ZM189.217 653.125C184.902 653.125 181.404 656.623 181.404 660.938V682.812C181.404 687.126 184.902 690.624 189.217 690.624C193.532 690.624 197.029 687.126 197.029 682.812V660.938C197.029 656.623 193.532 653.125 189.217 653.125Z" fill="#E01E5A"/>
<path d="M203.28 682.813C203.28 687.128 206.777 690.625 211.091 690.625C215.406 690.625 218.903 687.127 218.903 682.813C218.903 678.498 215.406 675 211.091 675L203.28 675L203.28 682.813ZM203.28 660.937C203.28 665.252 206.777 668.75 211.092 668.75L232.966 668.75C237.281 668.75 240.778 665.252 240.778 660.938C240.778 656.623 237.281 653.125 232.966 653.125L211.092 653.125C206.777 653.125 203.28 656.623 203.28 660.937Z" fill="#ECB22E"/>
<path d="M197.029 617.187C197.029 612.872 193.531 609.375 189.217 609.375C184.903 609.375 181.405 612.873 181.405 617.187C181.405 621.502 184.903 625 189.218 625L197.029 625L197.029 617.187ZM197.029 639.063C197.029 634.748 193.531 631.25 189.216 631.25L167.343 631.25C163.028 631.25 159.53 634.748 159.53 639.062C159.53 643.377 163.028 646.875 167.343 646.875L189.216 646.875C193.531 646.875 197.029 643.377 197.029 639.063Z" fill="#36C5F0"/>
<path d="M1067.34 653.125C1063.03 653.125 1059.53 656.623 1059.53 660.937C1059.53 665.252 1063.03 668.749 1067.34 668.749C1071.66 668.749 1075.15 665.251 1075.15 660.937L1075.15 653.125L1067.34 653.125ZM1089.22 653.125C1084.9 653.125 1081.4 656.623 1081.4 660.938L1081.4 682.812C1081.4 687.126 1084.9 690.624 1089.22 690.624C1093.53 690.624 1097.03 687.126 1097.03 682.812L1097.03 660.938C1097.03 656.623 1093.53 653.125 1089.22 653.125Z" fill="#2EB67D"/>
<path d="M1132.97 646.875C1137.28 646.875 1140.78 643.377 1140.78 639.063C1140.78 634.748 1137.28 631.251 1132.97 631.251C1128.65 631.251 1125.15 634.749 1125.15 639.063L1125.15 646.875L1132.97 646.875ZM1111.09 646.875C1115.41 646.875 1118.9 643.377 1118.9 639.062L1118.9 617.188C1118.9 612.874 1115.41 609.376 1111.09 609.376C1106.78 609.376 1103.28 612.874 1103.28 617.188L1103.28 639.062C1103.28 643.377 1106.78 646.875 1111.09 646.875Z" fill="#E01E5A"/>
<path d="M1097.03 617.187C1097.03 612.872 1093.53 609.375 1089.22 609.375C1084.9 609.375 1081.41 612.873 1081.41 617.187C1081.41 621.502 1084.9 625 1089.22 625L1097.03 625L1097.03 617.187ZM1097.03 639.063C1097.03 634.748 1093.53 631.25 1089.22 631.25L1067.34 631.25C1063.03 631.25 1059.53 634.748 1059.53 639.062C1059.53 643.377 1063.03 646.875 1067.34 646.875L1089.22 646.875C1093.53 646.875 1097.03 643.377 1097.03 639.063Z" fill="#ECB22E"/>
<path d="M1103.28 682.813C1103.28 687.128 1106.78 690.625 1111.09 690.625C1115.41 690.625 1118.9 687.127 1118.9 682.813C1118.9 678.498 1115.41 675 1111.09 675L1103.28 675L1103.28 682.813ZM1103.28 660.937C1103.28 665.252 1106.78 668.75 1111.09 668.75L1132.97 668.75C1137.28 668.75 1140.78 665.252 1140.78 660.938C1140.78 656.623 1137.28 653.125 1132.97 653.125L1111.09 653.125C1106.78 653.125 1103.28 656.623 1103.28 660.937Z" fill="#36C5F0"/>
<g filter="url(#filter0_f_5295_6384)">
<path d="M633.761 559.226C625.458 572.213 621.838 589.032 622.903 610.749C623.967 628.42 623.542 630.336 620.561 628.633C610.129 623.097 597.142 601.594 596.929 589.671C596.929 584.136 596.503 583.923 586.283 583.923H575.638V591.374C575.638 610.536 595.012 640.129 613.961 649.923L621.413 653.755L615.451 655.246C605.232 658.013 585.645 655.033 574.148 649.071L563.29 643.749L557.754 650.988C554.774 654.82 552.219 659.078 552.219 660.355C552.219 663.549 570.529 672.278 583.941 675.472C590.967 677.175 601.825 677.814 612.045 676.962C621.413 676.323 628.864 676.536 628.864 677.388C628.864 678.239 625.245 682.284 620.987 686.543C611.832 695.485 596.503 702.936 587.987 703.149C582.238 703.149 582.025 703.575 582.025 714.007V725.078L592.245 723.801C613.322 721.246 635.677 707.62 645.897 690.588C648.877 685.904 652.071 681.859 653.135 681.859C653.987 681.859 654.413 689.736 653.987 699.317C653.561 712.73 652.071 719.543 648.026 727.207L642.916 737.64L650.155 743.601C656.755 749.136 658.032 749.349 661.226 746.582C663.142 744.665 666.974 738.278 669.742 732.317C674 722.736 674.639 717.839 674.639 696.336C674.639 675.046 675.064 671.852 677.832 673.343C688.052 678.878 701.039 700.594 701.252 712.091C701.252 717.839 701.677 718.052 712.11 718.052H723.181L721.69 706.13C721.052 699.743 718.071 689.949 715.303 684.414C710.194 674.194 693.587 657.162 684.219 652.052L679.11 649.284L684.219 647.368C692.735 643.962 716.155 647.368 726.8 653.33L736.381 658.652L742.129 651.626C745.323 647.794 748.091 643.536 748.091 642.046C748.091 638.213 726.374 628.633 711.258 625.865C701.89 624.375 693.161 624.162 683.581 625.652L669.529 627.781L673.148 621.607C677.832 613.729 693.374 603.51 703.168 601.807C715.942 599.678 716.155 599.678 716.155 588.394V577.749L708.277 579.026C684.432 582.22 663.355 595.42 652.922 613.091C648.239 621.394 647.174 622.246 645.258 619.052C641.851 612.665 644.832 586.052 650.368 574.768L655.477 564.336L648.026 558.161C643.98 554.968 640.148 551.987 639.509 551.987C638.871 551.987 636.316 555.181 633.761 559.226Z" fill="white"/>
</g>
<path d="M633.76 559.226C625.457 572.213 621.837 589.032 622.902 610.749C623.966 628.42 623.541 630.336 620.56 628.633C610.128 623.097 597.141 601.594 596.928 589.671C596.928 584.136 596.502 583.923 586.282 583.923H575.637V591.374C575.637 610.536 595.012 640.129 613.96 649.923L621.412 653.755L615.45 655.246C605.231 658.013 585.644 655.033 574.147 649.071L563.289 643.749L557.753 650.988C554.773 654.82 552.218 659.078 552.218 660.355C552.218 663.549 570.528 672.278 583.94 675.472C590.966 677.175 601.824 677.814 612.044 676.962C621.412 676.323 628.863 676.536 628.863 677.388C628.863 678.239 625.244 682.284 620.986 686.543C611.831 695.485 596.502 702.936 587.986 703.149C582.237 703.149 582.024 703.575 582.024 714.007V725.078L592.244 723.801C613.321 721.246 635.676 707.62 645.896 690.588C648.876 685.904 652.07 681.859 653.134 681.859C653.986 681.859 654.412 689.736 653.986 699.317C653.56 712.73 652.07 719.543 648.025 727.207L642.915 737.64L650.154 743.601C656.754 749.136 658.031 749.349 661.225 746.582C663.141 744.665 666.973 738.278 669.741 732.317C673.999 722.736 674.638 717.839 674.638 696.336C674.638 675.046 675.063 671.852 677.831 673.343C688.051 678.878 701.038 700.594 701.251 712.091C701.251 717.839 701.676 718.052 712.109 718.052H723.18L721.689 706.13C721.051 699.743 718.07 689.949 715.302 684.414C710.193 674.194 693.586 657.162 684.218 652.052L679.109 649.284L684.218 647.368C692.735 643.962 716.154 647.368 726.799 653.33L736.38 658.652L742.128 651.626C745.322 647.794 748.09 643.536 748.09 642.046C748.09 638.213 726.373 628.633 711.257 625.865C701.889 624.375 693.16 624.162 683.58 625.652L669.528 627.781L673.147 621.607C677.831 613.729 693.373 603.51 703.167 601.807C715.941 599.678 716.154 599.678 716.154 588.394V577.749L708.277 579.026C684.431 582.22 663.354 595.42 652.921 613.091C648.238 621.394 647.173 622.246 645.257 619.052C641.85 612.665 644.831 586.052 650.367 574.768L655.476 564.336L648.025 558.161C643.979 554.968 640.147 551.987 639.508 551.987C638.87 551.987 636.315 555.181 633.76 559.226Z" fill="white"/>
<defs>
<filter id="filter0_f_5295_6384" x="526.2" y="525.968" width="247.911" height="248.373" filterUnits="userSpaceOnUse" color-interpolation-filters="sRGB">
<feFlood flood-opacity="0" result="BackgroundImageFix"/>
<feBlend mode="normal" in="SourceGraphic" in2="BackgroundImageFix" result="shape"/>
<feGaussianBlur stdDeviation="13.0096" result="effect1_foregroundBlur_5295_6384"/>
</filter>
<linearGradient id="paint0_linear_5295_6384" x1="657.248" y1="209.403" x2="630.294" y2="250.652" gradientUnits="userSpaceOnUse">
<stop stop-color="#364088"/>
<stop offset="1" stop-color="#6E7EE1"/>
</linearGradient>
<linearGradient id="paint1_linear_5295_6384" x1="639.484" y1="178.057" x2="639.484" y2="228.211" gradientUnits="userSpaceOnUse">
<stop stop-color="#515FC4"/>
<stop offset="1" stop-color="#7084EA"/>
</linearGradient>
<linearGradient id="paint2_linear_5295_6384" x1="665.828" y1="226.066" x2="683.997" y2="238.852" gradientUnits="userSpaceOnUse">
<stop stop-color="#364088"/>
<stop offset="1" stop-color="#6E7EE1"/>
</linearGradient>
<linearGradient id="paint3_linear_5295_6384" x1="672.544" y1="197.312" x2="688.665" y2="216.12" gradientUnits="userSpaceOnUse">
<stop stop-color="#4858AE"/>
<stop offset="1" stop-color="#4E60CE"/>
</linearGradient>
<linearGradient id="paint4_linear_5295_6384" x1="695.831" y1="191.939" x2="672.321" y2="212.09" gradientUnits="userSpaceOnUse">
<stop stop-color="#4858AE"/>
<stop offset="1" stop-color="#4E60CE"/>
</linearGradient>
<linearGradient id="paint5_linear_5295_6384" x1="695.831" y1="191.939" x2="672.321" y2="212.09" gradientUnits="userSpaceOnUse">
<stop stop-color="#4858AE"/>
<stop offset="1" stop-color="#4E60CE"/>
</linearGradient>
<linearGradient id="paint6_linear_5295_6384" x1="678.366" y1="178.057" x2="734.79" y2="178.057" gradientUnits="userSpaceOnUse">
<stop stop-color="#2A3887"/>
<stop offset="1" stop-color="#4C56B9"/>
</linearGradient>
<linearGradient id="paint7_linear_5295_6384" x1="643.061" y1="1090.6" x2="670.015" y2="1049.35" gradientUnits="userSpaceOnUse">
<stop stop-color="#364088"/>
<stop offset="1" stop-color="#6E7EE1"/>
</linearGradient>
<linearGradient id="paint8_linear_5295_6384" x1="660.825" y1="1121.94" x2="660.825" y2="1071.79" gradientUnits="userSpaceOnUse">
<stop stop-color="#515FC4"/>
<stop offset="1" stop-color="#7084EA"/>
</linearGradient>
<linearGradient id="paint9_linear_5295_6384" x1="615.673" y1="1057.1" x2="633.842" y2="1069.89" gradientUnits="userSpaceOnUse">
<stop stop-color="#364088"/>
<stop offset="1" stop-color="#6E7EE1"/>
</linearGradient>
<linearGradient id="paint10_linear_5295_6384" x1="609.852" y1="1084.77" x2="625.973" y2="1103.58" gradientUnits="userSpaceOnUse">
<stop stop-color="#4858AE"/>
<stop offset="1" stop-color="#4E60CE"/>
</linearGradient>
<linearGradient id="paint11_linear_5295_6384" x1="604.478" y1="1108.06" x2="627.988" y2="1087.91" gradientUnits="userSpaceOnUse">
<stop stop-color="#4858AE"/>
<stop offset="1" stop-color="#4E60CE"/>
</linearGradient>
<linearGradient id="paint12_linear_5295_6384" x1="604.478" y1="1108.06" x2="627.988" y2="1087.91" gradientUnits="userSpaceOnUse">
<stop stop-color="#4858AE"/>
<stop offset="1" stop-color="#4E60CE"/>
</linearGradient>
<linearGradient id="paint13_linear_5295_6384" x1="621.942" y1="1178.37" x2="678.366" y2="1178.37" gradientUnits="userSpaceOnUse">
<stop stop-color="#2A3887"/>
<stop offset="1" stop-color="#4C56B9"/>
</linearGradient>
<linearGradient id="paint14_linear_5295_6384" x1="657.248" y1="209.403" x2="630.294" y2="250.652" gradientUnits="userSpaceOnUse">
<stop stop-color="#364088"/>
<stop offset="1" stop-color="#6E7EE1"/>
</linearGradient>
<linearGradient id="paint15_linear_5295_6384" x1="639.484" y1="178.057" x2="639.484" y2="228.211" gradientUnits="userSpaceOnUse">
<stop stop-color="#515FC4"/>
<stop offset="1" stop-color="#7084EA"/>
</linearGradient>
<linearGradient id="paint16_linear_5295_6384" x1="665.828" y1="226.066" x2="683.997" y2="238.852" gradientUnits="userSpaceOnUse">
<stop stop-color="#364088"/>
<stop offset="1" stop-color="#6E7EE1"/>
</linearGradient>
<linearGradient id="paint17_linear_5295_6384" x1="672.544" y1="197.312" x2="688.665" y2="216.12" gradientUnits="userSpaceOnUse">
<stop stop-color="#4858AE"/>
<stop offset="1" stop-color="#4E60CE"/>
</linearGradient>
<linearGradient id="paint18_linear_5295_6384" x1="695.831" y1="191.939" x2="672.321" y2="212.09" gradientUnits="userSpaceOnUse">
<stop stop-color="#4858AE"/>
<stop offset="1" stop-color="#4E60CE"/>
</linearGradient>
<linearGradient id="paint19_linear_5295_6384" x1="695.831" y1="191.939" x2="672.321" y2="212.09" gradientUnits="userSpaceOnUse">
<stop stop-color="#4858AE"/>
<stop offset="1" stop-color="#4E60CE"/>
</linearGradient>
<linearGradient id="paint20_linear_5295_6384" x1="678.366" y1="178.057" x2="734.79" y2="178.057" gradientUnits="userSpaceOnUse">
<stop stop-color="#2A3887"/>
<stop offset="1" stop-color="#4C56B9"/>
</linearGradient>
<linearGradient id="paint21_linear_5295_6384" x1="643.061" y1="1090.6" x2="670.015" y2="1049.35" gradientUnits="userSpaceOnUse">
<stop stop-color="#364088"/>
<stop offset="1" stop-color="#6E7EE1"/>
</linearGradient>
<linearGradient id="paint22_linear_5295_6384" x1="660.825" y1="1121.94" x2="660.825" y2="1071.79" gradientUnits="userSpaceOnUse">
<stop stop-color="#515FC4"/>
<stop offset="1" stop-color="#7084EA"/>
</linearGradient>
<linearGradient id="paint23_linear_5295_6384" x1="615.673" y1="1057.1" x2="633.842" y2="1069.89" gradientUnits="userSpaceOnUse">
<stop stop-color="#364088"/>
<stop offset="1" stop-color="#6E7EE1"/>
</linearGradient>
<linearGradient id="paint24_linear_5295_6384" x1="609.852" y1="1084.77" x2="625.973" y2="1103.58" gradientUnits="userSpaceOnUse">
<stop stop-color="#4858AE"/>
<stop offset="1" stop-color="#4E60CE"/>
</linearGradient>
<linearGradient id="paint25_linear_5295_6384" x1="604.478" y1="1108.06" x2="627.988" y2="1087.91" gradientUnits="userSpaceOnUse">
<stop stop-color="#4858AE"/>
<stop offset="1" stop-color="#4E60CE"/>
</linearGradient>
<linearGradient id="paint26_linear_5295_6384" x1="604.478" y1="1108.06" x2="627.988" y2="1087.91" gradientUnits="userSpaceOnUse">
<stop stop-color="#4858AE"/>
<stop offset="1" stop-color="#4E60CE"/>
</linearGradient>
<linearGradient id="paint27_linear_5295_6384" x1="621.942" y1="1178.37" x2="678.366" y2="1178.37" gradientUnits="userSpaceOnUse">
<stop stop-color="#2A3887"/>
<stop offset="1" stop-color="#4C56B9"/>
</linearGradient>
<clipPath id="clip0_5295_6384">
<rect width="100.309" height="100.309" fill="white" transform="translate(700.309 149.845) rotate(90)"/>
</clipPath>
<clipPath id="clip1_5295_6384">
<rect width="100.309" height="100.309" fill="white" transform="translate(600 1150.15) rotate(-90)"/>
</clipPath>
<clipPath id="clip2_5295_6384">
<rect width="100.309" height="100.309" fill="white" transform="translate(700.309 149.845) rotate(90)"/>
</clipPath>
<clipPath id="clip3_5295_6384">
<rect width="100.309" height="100.309" fill="white" transform="translate(600 1150.15) rotate(-90)"/>
</clipPath>
</defs>
</svg>
