<svg width="22" height="22" viewBox="0 0 22 22" fill="none" xmlns="http://www.w3.org/2000/svg">
<path d="M8.97007 0.796294C8.05667 2.22495 7.65852 4.07517 7.77562 6.46407C7.89273 8.40797 7.84588 8.61876 7.518 8.43139C6.37039 7.82246 4.94174 5.45698 4.91832 4.14543C4.91832 3.5365 4.87147 3.51308 3.74729 3.51308H2.57626V4.3328C2.57626 6.44065 4.70753 9.69611 6.79196 10.7735L7.61168 11.195L6.9559 11.359C5.83172 11.6634 3.67703 11.3355 2.41232 10.6798L1.21787 10.0943L0.608934 10.8906C0.281047 11.3121 0 11.7805 0 11.9211C0 12.2724 2.01417 13.2326 3.48966 13.5839C4.26254 13.7713 5.45699 13.8415 6.58118 13.7479C7.61168 13.6776 8.4314 13.701 8.4314 13.7947C8.4314 13.8884 8.03325 14.3334 7.56484 14.8018C6.55775 15.7854 4.87147 16.6052 3.93465 16.6286C3.3023 16.6286 3.27888 16.6754 3.27888 17.823V19.0409L4.40306 18.9004C6.7217 18.6193 9.18086 17.1204 10.305 15.2468C10.6329 14.7315 10.9842 14.2865 11.1013 14.2865C11.195 14.2865 11.2419 15.1531 11.195 16.207C11.1482 17.6825 10.9842 18.432 10.5392 19.2751L9.97716 20.4227L10.7735 21.0785C11.4995 21.6874 11.64 21.7108 11.9913 21.4064C12.2021 21.1956 12.6237 20.493 12.9281 19.8372C13.3966 18.7833 13.4668 18.2446 13.4668 15.8791C13.4668 13.5371 13.5137 13.1858 13.8181 13.3497C14.9423 13.9586 16.371 16.3475 16.3944 17.6123C16.3944 18.2446 16.4412 18.268 17.5888 18.268H18.8067L18.6428 16.9565C18.5725 16.2539 18.2446 15.1765 17.9401 14.5676C17.378 13.4434 15.5512 11.5697 14.5207 11.0077L13.9586 10.7032L14.5207 10.4924C15.4576 10.1177 18.0338 10.4924 19.2049 11.1482L20.2588 11.7337L20.8911 10.9608C21.2424 10.5392 21.5469 10.0708 21.5469 9.90689C21.5469 9.48532 19.158 8.43139 17.4952 8.12693C16.4646 7.96298 15.5044 7.93956 14.4505 8.10351L12.9047 8.33771L13.3029 7.65852C13.8181 6.79196 15.5278 5.66777 16.6052 5.4804C18.0104 5.2462 18.0338 5.2462 18.0338 4.00491V2.83388L17.1673 2.97441C14.5442 3.32571 12.2255 4.77779 11.0779 6.72169C10.5627 7.6351 10.4456 7.72878 10.2348 7.37747C9.86005 6.67485 10.1879 3.74728 10.7969 2.50599L11.359 1.35839L10.5392 0.679191C10.0943 0.327883 9.67269 -4.63792e-06 9.60243 -4.63792e-06C9.53216 -4.63792e-06 9.25112 0.351304 8.97007 0.796294Z" fill="white"/>
</svg>
