<svg preserveAspectRatio="none" width="100%" height="100%" overflow="visible" style="display: block;" viewBox="0 0 68.9624 50.1544" fill="none" xmlns="http://www.w3.org/2000/svg">
<path id="Vector" d="M58.4178 4.20037C53.9536 2.23812 49.1803 0.811966 44.1903 0C43.5772 1.04098 42.8613 2.4411 42.3678 3.55494C37.0629 2.80545 31.8069 2.80545 26.5998 3.55494C26.1063 2.4411 25.3739 1.04098 24.7557 0C19.76 0.811966 14.9814 2.24332 10.5173 4.21078C1.51328 16.994 -0.927576 29.4599 0.29285 41.7486C6.26481 45.9385 12.0523 48.4837 17.7422 50.1492C19.1471 48.3328 20.4 46.4019 21.4795 44.3666C19.4237 43.6327 17.4548 42.7272 15.5943 41.6756C16.0879 41.3323 16.5706 40.973 17.0371 40.6036C28.3845 45.5898 40.7133 45.5898 51.9251 40.6036C52.3968 40.973 52.8797 41.3323 53.3679 41.6756C51.5019 42.7322 49.5276 43.6379 47.4718 44.3718C48.5512 46.4019 49.7987 48.338 51.209 50.1545C56.9043 48.4889 62.6973 45.9438 68.6693 41.7486C70.1013 27.5028 66.223 15.1515 58.4178 4.20037ZM23.0253 34.1911C19.619 34.1911 16.8256 31.2034 16.8256 27.5653C16.8256 23.927 19.5593 20.9342 23.0253 20.9342C26.4914 20.9342 29.2847 23.9218 29.225 27.5653C29.2306 31.2034 26.4914 34.1911 23.0253 34.1911ZM45.9369 34.1911C42.5305 34.1911 39.737 31.2034 39.737 27.5653C39.737 23.927 42.4708 20.9342 45.9369 20.9342C49.4027 20.9342 52.1963 23.9218 52.1366 27.5653C52.1366 31.2034 49.4027 34.1911 45.9369 34.1911Z" fill="var(--fill-0, #5865F2)"/>
</svg>
