<svg preserveAspectRatio="none" width="100%" height="100%" overflow="visible" style="display: block;" viewBox="0 0 87.7703 87.7703" fill="none" xmlns="http://www.w3.org/2000/svg">
<path id="bg" d="M0 30.0927C0 19.5592 0 14.2925 2.04994 10.2693C3.85312 6.73037 6.73037 3.85312 10.2693 2.04994C14.2925 0 19.5592 0 30.0927 0H57.6776C68.211 0 73.4778 0 77.501 2.04994C81.0399 3.85312 83.9172 6.73037 85.7203 10.2693C87.7703 14.2925 87.7703 19.5592 87.7703 30.0927V57.6776C87.7703 68.211 87.7703 73.4778 85.7203 77.501C83.9172 81.0399 81.0399 83.9172 77.501 85.7203C73.4778 87.7703 68.211 87.7703 57.6776 87.7703H30.0927C19.5592 87.7703 14.2925 87.7703 10.2693 85.7203C6.73037 83.9172 3.85312 81.0399 2.04994 77.501C0 73.4778 0 68.211 0 57.6776V30.0927Z" fill="var(--fill-0, white)"/>
</svg>
