<svg preserveAspectRatio="none" width="100%" height="100%" overflow="visible" style="display: block;" viewBox="0 0 68.9622 53.2892" fill="none" xmlns="http://www.w3.org/2000/svg">
<g id="gmail">
<path id="Vector" d="M53.4499 4.77392L34.6824 19.4203L15.4858 4.77392V4.77788L15.509 4.79767V25.3066L34.4659 40.2697L53.4499 25.8846V4.77392Z" fill="var(--fill-0, #EA4335)"/>
<path id="Vector_2" d="M58.3782 1.21118L53.4495 4.77383V25.8845L68.9583 13.9773V6.80453C68.9583 6.80453 67.0758 -3.44004 58.3782 1.21118Z" fill="var(--fill-0, #FBBC05)"/>
<path id="Vector_3" d="M53.4495 25.8849V53.2658H65.3363C65.3363 53.2658 68.7187 52.9174 68.9622 49.0619V13.9778L53.4495 25.8849Z" fill="var(--fill-0, #34A853)"/>
<path id="Vector_4" d="M15.5099 53.2889V25.3063L15.4858 25.2865L15.5099 53.2889Z" fill="var(--fill-0, #C5221F)"/>
<path id="Vector_5" d="M15.4856 4.7781L10.584 1.23525C1.88641 -3.41598 0 6.82464 0 6.82464V13.9974L15.4856 25.287V4.7781Z" fill="var(--fill-0, #C5221F)"/>
<path id="Vector_6" d="M15.4858 4.77774V25.2867L15.5099 25.3065V4.79754L15.4858 4.77774Z" fill="var(--fill-0, #C5221F)"/>
<path id="Vector_7" d="M0 14.0011V49.0852C0.239667 52.9448 3.62594 53.2892 3.62594 53.2892H15.5127L15.4856 25.2868L0 14.0011Z" fill="var(--fill-0, #4285F4)"/>
</g>
</svg>
