<svg preserveAspectRatio="none" width="100%" height="100%" overflow="visible" style="display: block;" viewBox="0 0 87.7703 87.7703" fill="none" xmlns="http://www.w3.org/2000/svg">
<path id="bg" d="M0 31.2072C0 20.2837 0 14.8219 2.12586 10.6496C3.99583 6.97964 6.97964 3.99583 10.6496 2.12586C14.8219 0 20.2837 0 31.2072 0H56.5631C67.4866 0 72.9484 0 77.1206 2.12586C80.7906 3.99583 83.7745 6.97964 85.6444 10.6496C87.7703 14.8219 87.7703 20.2837 87.7703 31.2072V56.5631C87.7703 67.4866 87.7703 72.9484 85.6444 77.1206C83.7745 80.7906 80.7906 83.7745 77.1206 85.6444C72.9484 87.7703 67.4866 87.7703 56.5631 87.7703H31.2072C20.2837 87.7703 14.8219 87.7703 10.6496 85.6444C6.97964 83.7745 3.99583 80.7906 2.12586 77.1206C0 72.9484 0 67.4866 0 56.5631V31.2072Z" fill="var(--fill-0, white)"/>
</svg>
