<svg preserveAspectRatio="none" width="100%" height="100%" overflow="visible" style="display: block;" viewBox="0 0 68.192 68.3056" fill="none" xmlns="http://www.w3.org/2000/svg">
<g id="Logo">
<g id="Vector" filter="url(#filter0_f_0_598)">
<path d="M30.0881 11.9225C28.0581 15.0976 27.1733 19.2096 27.4335 24.5188C27.6938 28.839 27.5897 29.3075 26.861 28.8911C24.3105 27.5377 21.1354 22.2806 21.0834 19.3658C21.0834 18.0125 20.9793 17.9604 18.4809 17.9604H15.8783V19.7822C15.8783 24.4668 20.6149 31.7018 25.2474 34.0962L27.0692 35.0331L25.6118 35.3974C23.1133 36.0741 18.3247 35.3454 15.514 33.8879L12.8594 32.5867L11.5061 34.3564C10.7774 35.2933 10.1528 36.3343 10.1528 36.6466C10.1528 37.4274 14.6291 39.5615 17.9083 40.3422C19.626 40.7587 22.2805 40.9148 24.779 40.7066C27.0692 40.5505 28.8909 40.6025 28.8909 40.8107C28.8909 41.0189 28.0061 42.0079 26.9651 43.0489C24.7269 45.235 20.9793 47.0568 18.8973 47.1089C17.4919 47.1089 17.4398 47.213 17.4398 49.7634V52.4701L19.9383 52.1578C25.0913 51.5332 30.5566 48.2019 33.055 44.0379C33.7837 42.8927 34.5644 41.9038 34.8247 41.9038C35.0329 41.9038 35.137 43.8297 35.0329 46.1719C34.9288 49.4511 34.5644 51.1168 33.5755 52.9906L32.3263 55.5411L34.096 56.9985C35.7096 58.3518 36.0219 58.4039 36.8026 57.7272C37.2711 57.2588 38.208 55.6972 38.8846 54.2398C39.9256 51.8975 40.0818 50.7004 40.0818 45.4432C40.0818 40.2381 40.1859 39.4574 40.8625 39.8217C43.361 41.1751 46.536 46.4842 46.5881 49.295C46.5881 50.7004 46.6922 50.7524 49.2427 50.7524H51.9493L51.5849 47.8376C51.4288 46.276 50.7001 43.8817 50.0234 42.5284C48.7742 40.0299 44.7143 35.8659 42.4241 34.6167L41.1749 33.94L42.4241 33.4715C44.5061 32.6387 50.2316 33.4715 52.8342 34.929L55.1764 36.2302L56.5818 34.5126C57.3625 33.5756 58.0392 32.5346 58.0392 32.1703C58.0392 31.2334 52.7301 28.8911 49.0345 28.2144C46.7443 27.8501 44.6102 27.798 42.2679 28.1624L38.8326 28.6829L39.7174 27.1734C40.8625 25.2475 44.6622 22.7491 47.0566 22.3327C50.1796 21.8122 50.2316 21.8122 50.2316 19.0535V16.4509L48.3058 16.7632C42.4761 17.544 37.3231 20.7711 34.7726 25.0914C33.6275 27.1213 33.3673 27.3295 32.8988 26.5488C32.066 24.9873 32.7947 18.4809 34.148 15.7222L35.3973 13.1717L33.5755 11.6623C32.5865 10.8815 31.6496 10.1528 31.4935 10.1528C31.3373 10.1528 30.7127 10.9335 30.0881 11.9225Z" fill="var(--fill-0, white)"/>
</g>
<path id="Vector_2" d="M30.0875 11.9225C28.0576 15.0976 27.1727 19.2096 27.4329 24.5188C27.6932 28.839 27.5891 29.3075 26.8604 28.8911C24.3099 27.5377 21.1348 22.2806 21.0828 19.3658C21.0828 18.0125 20.9787 17.9604 18.4803 17.9604H15.8777V19.7822C15.8777 24.4668 20.6143 31.7018 25.2468 34.0962L27.0686 35.0331L25.6112 35.3974C23.1128 36.0741 18.3241 35.3454 15.5134 33.8879L12.8588 32.5867L11.5055 34.3564C10.7768 35.2933 10.1522 36.3343 10.1522 36.6466C10.1522 37.4274 14.6285 39.5615 17.9077 40.3422C19.6254 40.7587 22.28 40.9148 24.7784 40.7066C27.0686 40.5505 28.8904 40.6025 28.8904 40.8107C28.8904 41.0189 28.0055 42.0079 26.9645 43.0489C24.7263 45.235 20.9787 47.0568 18.8967 47.1089C17.4913 47.1089 17.4393 47.213 17.4393 49.7634V52.4701L19.9377 52.1578C25.0907 51.5332 30.556 48.2019 33.0544 44.0379C33.7831 42.8927 34.5639 41.9038 34.8241 41.9038C35.0323 41.9038 35.1364 43.8297 35.0323 46.1719C34.9282 49.4511 34.5639 51.1168 33.5749 52.9906L32.3257 55.5411L34.0954 56.9985C35.709 58.3518 36.0213 58.4039 36.802 57.7272C37.2705 57.2588 38.2074 55.6972 38.884 54.2398C39.9251 51.8975 40.0812 50.7004 40.0812 45.4432C40.0812 40.2381 40.1853 39.4574 40.862 39.8217C43.3604 41.1751 46.5355 46.4842 46.5875 49.295C46.5875 50.7004 46.6916 50.7524 49.2421 50.7524H51.9487L51.5844 47.8376C51.4282 46.276 50.6995 43.8817 50.0228 42.5284C48.7736 40.0299 44.7137 35.8659 42.4235 34.6167L41.1743 33.94L42.4235 33.4715C44.5055 32.6387 50.231 33.4715 52.8336 34.929L55.1758 36.2302L56.5812 34.5126C57.362 33.5756 58.0386 32.5346 58.0386 32.1703C58.0386 31.2334 52.7295 28.8911 49.0339 28.2144C46.7437 27.8501 44.6096 27.798 42.2673 28.1624L38.832 28.6829L39.7169 27.1734C40.862 25.2475 44.6616 22.7491 47.056 22.3327C50.179 21.8122 50.231 21.8122 50.231 19.0535V16.4509L48.3052 16.7632C42.4755 17.544 37.3225 20.7711 34.7721 25.0914C33.627 27.1213 33.3667 27.3295 32.8982 26.5488C32.0654 24.9873 32.7941 18.4809 34.1475 15.7222L35.3967 13.1717L33.5749 11.6623C32.5859 10.8815 31.649 10.1528 31.4929 10.1528C31.3367 10.1528 30.7121 10.9335 30.0875 11.9225Z" fill="var(--fill-0, white)"/>
</g>
<defs>
<filter id="filter0_f_0_598" x="3.81435e-07" y="-4.6855e-07" width="68.192" height="68.3056" filterUnits="userSpaceOnUse" color-interpolation-filters="sRGB">
<feFlood flood-opacity="0" result="BackgroundImageFix"/>
<feBlend mode="normal" in="SourceGraphic" in2="BackgroundImageFix" result="shape"/>
<feGaussianBlur stdDeviation="5.07639" result="effect1_foregroundBlur_0_598"/>
</filter>
</defs>
</svg>
