<svg preserveAspectRatio="none" width="100%" height="100%" overflow="visible" style="display: block;" viewBox="0 0 1272.03 1272.03" fill="none" xmlns="http://www.w3.org/2000/svg">
<g id="&#195;&#147;rbita">
<g id="Orbita">
<circle cx="636.014" cy="636.014" r="636.014" fill="var(--fill-0, white)" fill-opacity="0.08"/>
<circle cx="636.014" cy="636.014" r="635.514" stroke="var(--stroke-0, white)" stroke-opacity="0.1"/>
</g>
<g id="Orbita_2">
<circle cx="636.013" cy="636.014" r="459.192" fill="var(--fill-0, white)" fill-opacity="0.05"/>
<circle cx="636.013" cy="636.014" r="458.692" stroke="var(--stroke-0, white)" stroke-opacity="0.1"/>
</g>
<g id="Orbita_3">
<circle cx="636.014" cy="636.013" r="304.142" fill="var(--fill-0, white)" fill-opacity="0.04"/>
<circle cx="636.014" cy="636.013" r="303.642" stroke="var(--stroke-0, white)" stroke-opacity="0.1"/>
</g>
<g id="Logo">
<g id="Vector" filter="url(#filter0_f_0_40)">
<path d="M619.621 545.084C611.318 558.071 607.698 574.891 608.763 596.607C609.827 614.278 609.402 616.194 606.421 614.491C595.989 608.956 583.001 587.452 582.788 575.53C582.788 569.994 582.363 569.781 572.143 569.781H561.498V577.233C561.498 596.394 580.872 625.988 599.821 635.781L607.272 639.614L601.311 641.104C591.092 643.872 571.505 640.891 560.008 634.93L549.15 629.607L543.614 636.846C540.633 640.678 538.079 644.936 538.079 646.214C538.079 649.407 556.388 658.136 569.801 661.33C576.827 663.033 587.685 663.672 597.905 662.82C607.272 662.182 614.724 662.394 614.724 663.246C614.724 664.098 611.105 668.143 606.847 672.401C597.692 681.343 582.363 688.795 573.847 689.007C568.098 689.007 567.885 689.433 567.885 699.866V710.937L578.105 709.659C599.182 707.104 621.537 693.478 631.756 676.446C634.737 671.762 637.931 667.717 638.995 667.717C639.847 667.717 640.273 675.595 639.847 685.175C639.421 698.588 637.931 705.401 633.885 713.066L628.776 723.498L636.015 729.459C642.615 734.995 643.892 735.208 647.086 732.44C649.002 730.524 652.834 724.137 655.602 718.175C659.86 708.595 660.498 703.698 660.498 682.195C660.498 660.904 660.924 657.711 663.692 659.201C673.911 664.736 686.899 686.453 687.112 697.949C687.112 703.698 687.537 703.911 697.97 703.911H709.041L707.55 691.988C706.912 685.601 703.931 675.807 701.163 670.272C696.053 660.053 679.447 643.02 670.079 637.911L664.969 635.143L670.079 633.227C678.595 629.82 702.015 633.227 712.66 639.188L722.241 644.511L727.989 637.485C731.183 633.652 733.95 629.394 733.95 627.904C733.95 624.072 712.234 614.491 697.118 611.723C687.75 610.233 679.021 610.02 669.44 611.51L655.389 613.639L659.008 607.465C663.692 599.588 679.234 589.368 689.028 587.665C701.802 585.536 702.015 585.536 702.015 574.252V563.607L694.137 564.884C670.292 568.078 649.215 581.278 638.782 598.949C634.098 607.252 633.034 608.104 631.118 604.91C627.711 598.523 630.692 571.91 636.227 560.626L641.337 550.194L633.885 544.02C629.84 540.826 626.008 537.846 625.369 537.846C624.731 537.846 622.176 541.039 619.621 545.084Z" fill="var(--fill-0, white)"/>
</g>
<path id="Vector_2" d="M619.62 545.084C611.316 558.071 607.697 574.891 608.761 596.607C609.826 614.278 609.4 616.194 606.419 614.491C595.987 608.956 583 587.452 582.787 575.53C582.787 569.994 582.361 569.781 572.142 569.781H561.497V577.233C561.497 596.394 580.871 625.988 599.819 635.781L607.271 639.614L601.31 641.104C591.09 643.872 571.503 640.891 560.006 634.93L549.148 629.607L543.613 636.846C540.632 640.678 538.077 644.936 538.077 646.214C538.077 649.407 556.387 658.136 569.8 661.33C576.826 663.033 587.684 663.672 597.903 662.82C607.271 662.182 614.723 662.394 614.723 663.246C614.723 664.098 611.103 668.143 606.845 672.401C597.69 681.343 582.361 688.795 573.845 689.007C568.097 689.007 567.884 689.433 567.884 699.866V710.937L578.103 709.659C599.181 707.104 621.536 693.478 631.755 676.446C634.736 671.762 637.929 667.717 638.994 667.717C639.845 667.717 640.271 675.595 639.845 685.175C639.42 698.588 637.929 705.401 633.884 713.066L628.774 723.498L636.013 729.459C642.613 734.995 643.891 735.208 647.084 732.44C649 730.524 652.833 724.137 655.6 718.175C659.858 708.595 660.497 703.698 660.497 682.195C660.497 660.904 660.923 657.711 663.691 659.201C673.91 664.736 686.897 686.453 687.11 697.949C687.11 703.698 687.536 703.911 697.968 703.911H709.039L707.549 691.988C706.91 685.601 703.93 675.807 701.162 670.272C696.052 660.053 679.446 643.02 670.078 637.911L664.968 635.143L670.078 633.227C678.594 629.82 702.013 633.227 712.659 639.188L722.239 644.511L727.988 637.485C731.181 633.652 733.949 629.394 733.949 627.904C733.949 624.072 712.233 614.491 697.117 611.723C687.749 610.233 679.02 610.02 669.439 611.51L655.387 613.639L659.007 607.465C663.691 599.588 679.233 589.368 689.026 587.665C701.801 585.536 702.013 585.536 702.013 574.252V563.607L694.136 564.884C670.291 568.078 649.213 581.278 638.781 598.949C634.097 607.252 633.033 608.104 631.116 604.91C627.71 598.523 630.691 571.91 636.226 560.626L641.336 550.194L633.884 544.02C629.839 540.826 626.007 537.846 625.368 537.846C624.729 537.846 622.174 541.039 619.62 545.084Z" fill="var(--fill-0, white)"/>
</g>
</g>
<defs>
<filter id="filter0_f_0_40" x="512.059" y="511.826" width="247.91" height="248.374" filterUnits="userSpaceOnUse" color-interpolation-filters="sRGB">
<feFlood flood-opacity="0" result="BackgroundImageFix"/>
<feBlend mode="normal" in="SourceGraphic" in2="BackgroundImageFix" result="shape"/>
<feGaussianBlur stdDeviation="13.0096" result="effect1_foregroundBlur_0_40"/>
</filter>
</defs>
</svg>
