<svg preserveAspectRatio="none" width="100%" height="100%" overflow="visible" style="display: block;" viewBox="0 0 64 64" fill="none" xmlns="http://www.w3.org/2000/svg">
<g id="Quote">
<path id="Quote_2" d="M0 35.7939C0 20.0499 14.7984 9.55392 30.1028 12.2419V22.8659C22.1344 21.4579 16.0632 23.7619 14.0395 29.9059C15.0514 29.6499 16.0632 29.5219 16.9486 29.5219C23.2727 29.5219 27.9526 34.3859 27.9526 40.4019C27.9526 47.3139 22.7668 52.1779 14.6719 52.1779C6.07115 52.1779 0 46.2899 0 35.7939ZM33.8972 35.7939C33.8972 20.0499 48.6957 9.55392 64 12.2419V22.8659C56.0316 21.4579 49.9605 23.7619 47.9368 29.9059C48.9486 29.6499 49.9605 29.5219 50.8459 29.5219C57.17 29.5219 61.8498 34.3859 61.8498 40.4019C61.8498 47.3139 56.664 52.1779 48.5692 52.1779C39.9684 52.1779 33.8972 46.2899 33.8972 35.7939Z" fill="var(--fill-0, #F8F9FC)"/>
</g>
</svg>
