<svg preserveAspectRatio="none" width="100%" height="100%" overflow="visible" style="display: block;" viewBox="0 0 81.25 81.25" fill="none" xmlns="http://www.w3.org/2000/svg">
<g id="slack">
<path id="vector" d="M73.4382 37.4993C77.7525 37.4993 81.25 34.0018 81.25 29.6875C81.25 25.3731 77.7522 21.8757 73.4378 21.8757C69.1231 21.8757 65.625 25.3734 65.625 29.6882V37.4993H73.4382ZM51.5625 37.4993C55.8772 37.4993 59.375 34.0015 59.375 29.6868V7.81316C59.375 3.49844 55.8772 0.00066483 51.5625 0.00066483C47.2478 0.00066483 43.75 3.49844 43.75 7.81316V29.6868C43.75 34.0015 47.2478 37.4993 51.5625 37.4993Z" fill="var(--fill-0, #2EB67D)"/>
<path id="vector_2" d="M7.81183 43.7507C3.49747 43.7507 0 47.2482 0 51.5625C0 55.8769 3.49781 59.3743 7.81216 59.3743C12.1269 59.3743 15.625 55.8766 15.625 51.5618V43.7507H7.81183ZM29.6875 43.7507C25.3728 43.7507 21.875 47.2485 21.875 51.5632V73.4368C21.875 77.7516 25.3728 81.2493 29.6875 81.2493C34.0022 81.2493 37.5 77.7516 37.5 73.4368V51.5632C37.5 47.2485 34.0022 43.7507 29.6875 43.7507Z" fill="var(--fill-0, #E01E5A)"/>
<path id="vector_3" d="M43.7506 73.4382C43.7506 77.7525 47.2481 81.25 51.5624 81.25C55.8768 81.25 59.3742 77.7522 59.3742 73.4378C59.3742 69.1231 55.8765 65.625 51.5617 65.625L43.7506 65.625L43.7506 73.4382ZM43.7506 51.5625C43.7506 55.8772 47.2484 59.375 51.5631 59.375L73.4367 59.375C77.7515 59.375 81.2492 55.8772 81.2492 51.5625C81.2492 47.2478 77.7515 43.75 73.4367 43.75L51.5631 43.75C47.2484 43.75 43.7506 47.2478 43.7506 51.5625Z" fill="var(--fill-0, #ECB22E)"/>
<path id="vector_4" d="M37.4992 7.81183C37.4992 3.49747 34.0018 6.51774e-07 29.6874 4.63188e-07C25.3731 2.74601e-07 21.8756 3.49781 21.8756 7.81216C21.8756 12.1269 25.3734 15.625 29.6881 15.625L37.4992 15.625L37.4992 7.81183ZM37.4992 29.6875C37.4992 25.3728 34.0015 21.875 29.6867 21.875L7.81307 21.875C3.49835 21.875 0.000573569 25.3728 0.000573381 29.6875C0.000573192 34.0022 3.49835 37.5 7.81307 37.5L29.6867 37.5C34.0015 37.5 37.4992 34.0022 37.4992 29.6875Z" fill="var(--fill-0, #36C5F0)"/>
</g>
</svg>
