<svg width="122" height="28" viewBox="0 0 122 28" fill="none" xmlns="http://www.w3.org/2000/svg">
<path d="M47.1925 0.546585C46.2088 1.53025 46.4899 2.98232 47.778 3.45073C49.0661 3.89572 50.12 3.16969 50.12 1.81129C50.12 0.171856 48.3167 -0.601022 47.1925 0.546585Z" fill="#010104"/>
<path d="M42.1572 11.5543V21.9764H43.5625H44.9677V11.5543V1.13212H43.5625H42.1572V11.5543Z" fill="#010104"/>
<path d="M8.97007 3.56784C8.05667 4.9965 7.65852 6.84672 7.77562 9.23562C7.89273 11.1795 7.84588 11.3903 7.518 11.2029C6.37039 10.594 4.94174 8.22853 4.91832 6.91698C4.91832 6.30805 4.87147 6.28463 3.74729 6.28463H2.57626V7.10435C2.57626 9.2122 4.70753 12.4677 6.79196 13.545L7.61168 13.9666L6.9559 14.1305C5.83172 14.435 3.67703 14.1071 2.41232 13.4513L1.21787 12.8658L0.608934 13.6621C0.281047 14.0837 0 14.5521 0 14.6926C0 15.0439 2.01417 16.0042 3.48966 16.3555C4.26254 16.5428 5.45699 16.6131 6.58118 16.5194C7.61168 16.4491 8.4314 16.4726 8.4314 16.5663C8.4314 16.6599 8.03325 17.1049 7.56484 17.5733C6.55775 18.557 4.87147 19.3767 3.93465 19.4001C3.3023 19.4001 3.27888 19.447 3.27888 20.5946V21.8125L4.40306 21.6719C6.7217 21.3909 9.18086 19.892 10.305 18.0183C10.6329 17.5031 10.9842 17.0581 11.1013 17.0581C11.195 17.0581 11.2419 17.9246 11.195 18.9786C11.1482 20.4541 10.9842 21.2035 10.5392 22.0467L9.97716 23.1943L10.7735 23.85C11.4995 24.459 11.64 24.4824 11.9913 24.1779C12.2021 23.9671 12.6237 23.2645 12.9281 22.6088C13.3966 21.5548 13.4668 21.0162 13.4668 18.6507C13.4668 16.3086 13.5137 15.9573 13.8181 16.1213C14.9423 16.7302 16.371 19.1191 16.3944 20.3838C16.3944 21.0162 16.4412 21.0396 17.5888 21.0396H18.8067L18.6428 19.728C18.5725 19.0254 18.2446 17.9481 17.9401 17.3391C17.378 16.2149 15.5512 14.3413 14.5207 13.7792L13.9586 13.4747L14.5207 13.264C15.4576 12.8892 18.0338 13.264 19.2049 13.9197L20.2588 14.5052L20.8911 13.7324C21.2424 13.3108 21.5469 12.8424 21.5469 12.6784C21.5469 12.2569 19.158 11.2029 17.4952 10.8985C16.4646 10.7345 15.5044 10.7111 14.4505 10.8751L12.9047 11.1093L13.3029 10.4301C13.8181 9.56351 15.5278 8.43932 16.6052 8.25195C18.0104 8.01775 18.0338 8.01775 18.0338 6.77646V5.60543L17.1673 5.74595C14.5442 6.09726 12.2255 7.54934 11.0779 9.49324C10.5627 10.4066 10.4456 10.5003 10.2348 10.149C9.86005 9.4464 10.1879 6.51883 10.7969 5.27754L11.359 4.12994L10.5392 3.45074C10.0943 3.09943 9.67269 2.77154 9.60243 2.77154C9.53216 2.77154 9.25112 3.12285 8.97007 3.56784Z" fill="#010104"/>
<path d="M29.7444 6.77647C28.3861 7.3854 27.4961 8.22854 26.7466 9.68061C26.1611 10.758 26.1143 11.0624 26.1143 13.6621C26.1143 16.1213 26.1845 16.6131 26.6764 17.5968C27.3555 18.9552 28.9247 20.3838 30.166 20.7585C31.4541 21.1567 34.0538 21.1098 35.0609 20.6883C35.5293 20.4775 36.2788 20.0559 36.7238 19.7046L37.5435 19.0957L37.4264 21.0864C37.3093 23.4285 36.9814 24.0843 35.5527 24.8103C33.5386 25.8408 30.33 25.2553 29.4868 23.7095C29.2292 23.2177 29.0418 23.1474 27.7069 23.1474C26.8871 23.1474 26.2314 23.1943 26.2314 23.2411C26.2314 23.5924 27.0277 25.0913 27.5429 25.7003C29.0418 27.4802 32.0397 28.3702 34.8267 27.855C37.239 27.41 38.7145 26.4497 39.6513 24.6932C40.1432 23.7564 40.1666 23.4753 40.2369 15.1142L40.3071 6.49542L39.0658 6.56568C37.848 6.63594 37.8245 6.65936 37.7543 7.3854C37.7074 7.80697 37.6137 8.15828 37.5435 8.15828C37.4732 8.15828 37.0517 7.90065 36.6067 7.54934C35.3654 6.5891 34.3349 6.28463 32.5081 6.28463C31.2902 6.28463 30.4939 6.42516 29.7444 6.77647ZM35.6933 9.63377C36.8409 10.5238 37.3093 11.6714 37.3093 13.6621C37.3093 15.6529 36.8409 16.8005 35.6933 17.6904C34.4754 18.6038 32.1568 18.7209 30.8218 17.9481C29.6039 17.222 28.9481 15.9573 28.8545 13.9666C28.7608 12.6784 28.8545 12.1866 29.3697 11.0858C29.8615 10.0085 30.1426 9.70403 30.9623 9.30588C32.4378 8.62669 34.5457 8.76721 35.6933 9.63377Z" fill="#010104"/>
<path d="M56.3266 6.65937C55.9519 6.87016 55.3429 7.36199 54.9916 7.76014L54.3827 8.5096L54.2188 7.80698C54.1251 7.40883 54.0314 6.96384 53.9611 6.79989C53.9143 6.63595 53.4459 6.51885 52.6964 6.51885H51.5254V14.2476V21.9764H53.0477H54.5701V16.6834C54.5701 11.7416 54.5935 11.3201 55.0619 10.5003C55.6708 9.39958 56.6076 8.8609 57.8489 8.8609C59.0902 8.8609 60.0739 9.37616 60.5891 10.3364C60.9405 10.9688 61.0107 11.8587 61.081 16.5194L61.1512 21.9764H62.5565H63.9383V16.9878C63.9383 14.2711 64.0554 11.6479 64.1725 11.1795C64.5472 9.84457 65.5777 9.02485 67.0298 8.93117C68.5053 8.81406 69.2313 9.14195 69.9574 10.2427C70.4726 11.0156 70.496 11.203 70.496 16.496V21.9764H72.0418H73.5875L73.4939 16.1681C73.4236 11.0156 73.3768 10.2896 72.9786 9.56352C71.6436 7.12778 70.3321 6.28464 67.8261 6.28464C65.9759 6.28464 64.8517 6.77647 63.7275 8.0646C63.3059 8.53302 62.8844 8.83748 62.8141 8.69696C61.6196 6.917 60.4955 6.28464 58.5516 6.28464C57.6382 6.30806 56.7482 6.44859 56.3266 6.65937Z" fill="#010104"/>
<path d="M79.6764 6.75305C79.2314 7.01068 78.6459 7.52593 78.3415 7.87724L77.7794 8.5096L77.6154 7.50251L77.4515 6.51885H76.3273H75.1797V14.2476V21.9764H76.5849H77.9902V16.7068C77.9902 11.0156 78.037 10.7111 79.2549 9.58694C80.098 8.79064 82.0185 8.65012 83.049 9.28247C84.4074 10.149 84.5479 10.8048 84.5479 16.6834V21.9764H85.9297H87.335L87.4052 16.6365C87.4755 10.7345 87.5926 10.2193 89.0681 9.30589C90.1923 8.60328 92.0659 8.79064 92.9793 9.70404C93.9395 10.6409 94.1503 12.0461 94.1503 17.4328V21.9764H95.579H96.9842L96.914 16.1681C96.8437 10.6174 96.8203 10.3364 96.2816 9.32931C95.1106 7.08094 93.8224 6.28464 91.4101 6.28464C89.4662 6.28464 88.1781 6.82332 87.1944 8.04118L86.4684 8.90774L85.9297 8.15829C84.9929 6.89358 83.6813 6.28464 81.9482 6.28464C80.8475 6.28464 80.2385 6.42517 79.6764 6.75305Z" fill="#010104"/>
<path d="M102.254 6.63594C100.802 7.19804 99.3965 8.48617 98.6704 9.98508C98.0615 11.2264 98.0146 11.5074 98.0146 14.2476C98.0146 16.9878 98.0615 17.2689 98.6704 18.5102C99.9117 21.0396 102.066 22.2575 105.252 22.2575C107.945 22.234 110.029 21.1567 111.107 19.1894C111.435 18.557 111.716 17.9949 111.716 17.9012C111.716 17.831 111.083 17.7607 110.31 17.7607C108.999 17.7607 108.835 17.831 108.085 18.5804C105.861 20.782 102.09 19.892 101.083 16.8941C100.45 15.0673 100.052 15.1844 106.469 15.1844H112.254L112.137 13.3576C111.973 10.3832 110.498 7.94749 108.203 6.82331C107.102 6.26121 103.518 6.16753 102.254 6.63594ZM107.266 9.30588C108.085 9.72745 108.952 10.9922 109.257 12.1866L109.42 12.8424H105.064C101.739 12.8424 100.708 12.7721 100.708 12.5379C100.731 11.9524 101.598 10.3598 102.254 9.75088C103.495 8.60327 105.486 8.4159 107.266 9.30588Z" fill="#010104"/>
<path d="M47.0752 14.2476V21.9764H48.4804H49.8857V14.2476V6.51885H48.4804H47.0752V14.2476Z" fill="#010104"/>
<path d="M113.355 14.2476V21.9764H114.737H116.143L116.213 16.7536C116.283 11.8119 116.306 11.5074 116.798 10.8282C117.477 9.86799 118.695 9.3059 120.405 9.16537L121.787 9.02485V7.78356V6.51885H120.428C118.625 6.51885 117.641 6.84674 116.728 7.7133L115.955 8.46276L115.791 7.50251L115.627 6.51885H114.503H113.355V14.2476Z" fill="#010104"/>
</svg>
