<svg width="122" height="28" viewBox="0 0 122 28" fill="none" xmlns="http://www.w3.org/2000/svg">
<path d="M47.1925 0.5466C46.2088 1.53026 46.4899 2.98234 47.778 3.45075C49.0661 3.89574 50.12 3.1697 50.12 1.81131C50.12 0.171871 48.3167 -0.601007 47.1925 0.5466Z" fill="white"/>
<path d="M42.1572 11.5543V21.9764H43.5625H44.9677V11.5543V1.13211H43.5625H42.1572V11.5543Z" fill="white"/>
<path d="M8.97007 3.56784C8.05667 4.9965 7.65852 6.84672 7.77562 9.23562C7.89273 11.1795 7.84588 11.3903 7.518 11.2029C6.37039 10.594 4.94174 8.22853 4.91832 6.91698C4.91832 6.30805 4.87147 6.28463 3.74729 6.28463H2.57626V7.10435C2.57626 9.2122 4.70753 12.4677 6.79196 13.545L7.61168 13.9666L6.9559 14.1305C5.83172 14.435 3.67703 14.1071 2.41232 13.4513L1.21787 12.8658L0.608934 13.6621C0.281047 14.0837 0 14.5521 0 14.6926C0 15.0439 2.01417 16.0042 3.48966 16.3555C4.26254 16.5428 5.45699 16.6131 6.58118 16.5194C7.61168 16.4491 8.4314 16.4726 8.4314 16.5663C8.4314 16.6599 8.03325 17.1049 7.56484 17.5733C6.55775 18.557 4.87147 19.3767 3.93465 19.4001C3.3023 19.4001 3.27888 19.447 3.27888 20.5946V21.8125L4.40306 21.6719C6.7217 21.3909 9.18086 19.892 10.305 18.0183C10.6329 17.5031 10.9842 17.0581 11.1013 17.0581C11.195 17.0581 11.2419 17.9246 11.195 18.9786C11.1482 20.4541 10.9842 21.2035 10.5392 22.0467L9.97716 23.1943L10.7735 23.85C11.4995 24.459 11.64 24.4824 11.9913 24.1779C12.2021 23.9671 12.6237 23.2645 12.9281 22.6088C13.3966 21.5548 13.4668 21.0162 13.4668 18.6507C13.4668 16.3086 13.5137 15.9573 13.8181 16.1213C14.9423 16.7302 16.371 19.1191 16.3944 20.3838C16.3944 21.0162 16.4412 21.0396 17.5888 21.0396H18.8067L18.6428 19.728C18.5725 19.0254 18.2446 17.9481 17.9401 17.3391C17.378 16.2149 15.5512 14.3413 14.5207 13.7792L13.9586 13.4747L14.5207 13.264C15.4576 12.8892 18.0338 13.264 19.2049 13.9197L20.2588 14.5052L20.8911 13.7324C21.2424 13.3108 21.5469 12.8424 21.5469 12.6784C21.5469 12.2569 19.158 11.2029 17.4952 10.8985C16.4646 10.7345 15.5044 10.7111 14.4505 10.8751L12.9047 11.1093L13.3029 10.4301C13.8181 9.56351 15.5278 8.43932 16.6052 8.25195C18.0104 8.01775 18.0338 8.01775 18.0338 6.77646V5.60543L17.1673 5.74595C14.5442 6.09726 12.2255 7.54934 11.0779 9.49324C10.5627 10.4066 10.4456 10.5003 10.2348 10.149C9.86005 9.4464 10.1879 6.51883 10.7969 5.27754L11.359 4.12994L10.5392 3.45074C10.0943 3.09943 9.67269 2.77154 9.60243 2.77154C9.53216 2.77154 9.25112 3.12285 8.97007 3.56784Z" fill="white"/>
<path d="M29.744 6.77647C28.3856 7.3854 27.4956 8.22854 26.7461 9.68061C26.1606 10.758 26.1138 11.0624 26.1138 13.6621C26.1138 16.1213 26.184 16.6131 26.6759 17.5968C27.3551 18.9552 28.9242 20.3838 30.1655 20.7585C31.4537 21.1567 34.0533 21.1098 35.0604 20.6883C35.5288 20.4775 36.2783 20.0559 36.7233 19.7046L37.543 19.0957L37.4259 21.0864C37.3088 23.4285 36.9809 24.0843 35.5523 24.8103C33.5381 25.8408 30.3295 25.2553 29.4863 23.7095C29.2287 23.2177 29.0413 23.1474 27.7064 23.1474C26.8866 23.1474 26.2309 23.1943 26.2309 23.2411C26.2309 23.5924 27.0272 25.0913 27.5424 25.7003C29.0413 27.4802 32.0392 28.3702 34.8262 27.855C37.2385 27.41 38.714 26.4497 39.6508 24.6932C40.1427 23.7564 40.1661 23.4753 40.2364 15.1142L40.3066 6.49542L39.0653 6.56568C37.8475 6.63594 37.824 6.65936 37.7538 7.3854C37.7069 7.80697 37.6133 8.15828 37.543 8.15828C37.4727 8.15828 37.0512 7.90065 36.6062 7.54934C35.3649 6.5891 34.3344 6.28463 32.5076 6.28463C31.2897 6.28463 30.4934 6.42516 29.744 6.77647ZM35.6928 9.63377C36.8404 10.5238 37.3088 11.6714 37.3088 13.6621C37.3088 15.6529 36.8404 16.8005 35.6928 17.6904C34.4749 18.6038 32.1563 18.7209 30.8213 17.9481C29.6034 17.222 28.9477 15.9573 28.854 13.9666C28.7603 12.6784 28.854 12.1866 29.3692 11.0858C29.8611 10.0085 30.1421 9.70403 30.9618 9.30588C32.4373 8.62669 34.5452 8.76721 35.6928 9.63377Z" fill="white"/>
<path d="M56.3266 6.65936C55.9519 6.87014 55.3429 7.36197 54.9916 7.76012L54.3827 8.50958L54.2188 7.80696C54.1251 7.40881 54.0314 6.96382 53.9611 6.79988C53.9143 6.63594 53.4459 6.51883 52.6964 6.51883H51.5254V14.2476V21.9764H53.0477H54.5701V16.6834C54.5701 11.7416 54.5935 11.32 55.0619 10.5003C55.6708 9.39956 56.6076 8.86089 57.8489 8.86089C59.0902 8.86089 60.0739 9.37614 60.5891 10.3364C60.9405 10.9687 61.0107 11.8587 61.081 16.5194L61.1512 21.9764H62.5565H63.9383V16.9878C63.9383 14.271 64.0554 11.6479 64.1725 11.1795C64.5472 9.84455 65.5777 9.02483 67.0298 8.93115C68.5053 8.81405 69.2313 9.14194 69.9574 10.2427C70.4726 11.0156 70.496 11.2029 70.496 16.496V21.9764H72.0418H73.5875L73.4939 16.1681C73.4236 11.0156 73.3768 10.2895 72.9786 9.56351C71.6436 7.12777 70.3321 6.28463 67.8261 6.28463C65.9759 6.28463 64.8517 6.77646 63.7275 8.06459C63.3059 8.533 62.8844 8.83747 62.8141 8.69694C61.6196 6.91698 60.4955 6.28463 58.5516 6.28463C57.6382 6.30805 56.7482 6.44857 56.3266 6.65936Z" fill="white"/>
<path d="M79.6769 6.75304C79.2319 7.01066 78.6464 7.52592 78.342 7.87723L77.7799 8.50958L77.6159 7.5025L77.452 6.51883H76.3278H75.1802V14.2476V21.9764H76.5854H77.9906V16.7068C77.9906 11.0156 78.0375 10.7111 79.2554 9.58693C80.0985 8.79063 82.019 8.6501 83.0495 9.28246C84.4079 10.149 84.5484 10.8048 84.5484 16.6834V21.9764H85.9302H87.3354L87.4057 16.6365C87.476 10.7345 87.5931 10.2193 89.0686 9.30588C90.1927 8.60326 92.0664 8.79063 92.9798 9.70403C93.94 10.6409 94.1508 12.0461 94.1508 17.4328V21.9764H95.5795H96.9847L96.9144 16.1681C96.8442 10.6174 96.8208 10.3364 96.2821 9.3293C95.1111 7.08093 93.8229 6.28463 91.4106 6.28463C89.4667 6.28463 88.1786 6.8233 87.1949 8.04117L86.4689 8.90773L85.9302 8.15827C84.9934 6.89356 83.6818 6.28463 81.9487 6.28463C80.8479 6.28463 80.239 6.42515 79.6769 6.75304Z" fill="white"/>
<path d="M102.254 6.63594C100.802 7.19804 99.3969 8.48617 98.6709 9.98508C98.062 11.2264 98.0151 11.5074 98.0151 14.2476C98.0151 16.9878 98.062 17.2689 98.6709 18.5102C99.9122 21.0396 102.067 22.2575 105.252 22.2575C107.945 22.234 110.03 21.1567 111.107 19.1894C111.435 18.557 111.716 17.9949 111.716 17.9012C111.716 17.831 111.084 17.7607 110.311 17.7607C108.999 17.7607 108.835 17.831 108.086 18.5804C105.861 20.782 102.09 19.892 101.083 16.8941C100.451 15.0673 100.053 15.1844 106.47 15.1844H112.255L112.138 13.3576C111.974 10.3832 110.498 7.94749 108.203 6.82331C107.102 6.26121 103.519 6.16753 102.254 6.63594ZM107.266 9.30588C108.086 9.72745 108.953 10.9922 109.257 12.1866L109.421 12.8424H105.065C101.739 12.8424 100.708 12.7721 100.708 12.5379C100.732 11.9524 101.598 10.3598 102.254 9.75088C103.496 8.60327 105.486 8.4159 107.266 9.30588Z" fill="white"/>
<path d="M47.0752 14.2476V21.9764H48.4804H49.8857V14.2476V6.51883H48.4804H47.0752V14.2476Z" fill="white"/>
<path d="M113.355 14.2476V21.9764H114.737H116.143L116.213 16.7536C116.283 11.8119 116.306 11.5074 116.798 10.8282C117.477 9.86797 118.695 9.30588 120.405 9.16536L121.787 9.02483V7.78354V6.51883H120.428C118.625 6.51883 117.641 6.84672 116.728 7.71328L115.955 8.46274L115.791 7.5025L115.627 6.51883H114.503H113.355V14.2476Z" fill="white"/>
</svg>
