<svg width="65" height="65" viewBox="0 0 65 65" fill="none" xmlns="http://www.w3.org/2000/svg">
<g filter="url(#filter0_f_5239_6459)">
<path d="M28.4269 11.775C26.566 14.6855 25.755 18.4549 25.9935 23.3216C26.2321 27.2818 26.1367 27.7113 25.4687 27.3296C23.1307 26.089 20.2202 21.2699 20.1726 18.598C20.1726 17.3575 20.0771 17.3098 17.7869 17.3098H15.4012V18.9797C15.4012 23.274 19.7431 29.906 23.9896 32.1009L25.6595 32.9597L24.3236 33.2937C22.0333 33.914 17.6437 33.246 15.0673 31.91L12.6339 30.7172L11.3934 32.3394C10.7254 33.1983 10.1528 34.1525 10.1528 34.4388C10.1528 35.1545 14.2561 37.1108 17.262 37.8264C18.8366 38.2082 21.2699 38.3513 23.5602 38.1604C25.6595 38.0174 27.3294 38.065 27.3294 38.2559C27.3294 38.4467 26.5184 39.3533 25.5641 40.3076C23.5124 42.3115 20.0771 43.9815 18.1686 44.0292C16.8803 44.0292 16.8326 44.1247 16.8326 46.4625V48.9437L19.1229 48.6574C23.8465 48.0848 28.8563 45.0311 31.1465 41.2141C31.8145 40.1644 32.5301 39.2579 32.7687 39.2579C32.9596 39.2579 33.055 41.0233 32.9596 43.1703C32.8642 46.1762 32.5301 47.7031 31.6236 49.4208L30.4785 51.7587L32.1008 53.0947C33.5799 54.3352 33.8662 54.383 34.5818 53.7627C35.0113 53.3333 35.8701 51.9018 36.4903 50.5659C37.4446 48.4188 37.5878 47.3214 37.5878 42.5023C37.5878 37.731 37.6832 37.0153 38.3034 37.3493C40.5937 38.5899 43.5041 43.4566 43.5519 46.0331C43.5519 47.3214 43.6473 47.3691 45.9852 47.3691H48.4663L48.1323 44.6972C47.9892 43.2657 47.3212 41.071 46.7009 39.8304C45.5558 37.5401 41.8342 33.7231 39.7349 32.578L38.5898 31.9577L39.7349 31.5283C41.6434 30.7649 46.8917 31.5283 49.2775 32.8643L51.4245 34.0571L52.7128 32.4826C53.4284 31.6237 54.0487 30.6694 54.0487 30.3355C54.0487 29.4767 49.182 27.3296 45.7944 26.7093C43.695 26.3753 41.7388 26.3276 39.5917 26.6616L36.4427 27.1387L37.2537 25.755C38.3034 23.9896 41.7865 21.6994 43.9813 21.3177C46.8441 20.8406 46.8917 20.8406 46.8917 18.3118V15.926L45.1264 16.2123C39.7825 16.9281 35.0589 19.8862 32.721 23.8465C31.6713 25.7073 31.4328 25.8981 31.0033 25.1825C30.2399 23.7511 30.9079 17.7869 32.1484 15.2581L33.2936 12.9201L31.6236 11.5365C30.7171 10.8208 29.8582 10.1528 29.7151 10.1528C29.572 10.1528 28.9994 10.8684 28.4269 11.775Z" fill="white"/>
</g>
<path d="M28.4264 11.775C26.5656 14.6855 25.7545 18.4549 25.993 23.3216C26.2316 27.2818 26.1362 27.7113 25.4682 27.3296C23.1302 26.089 20.2197 21.2699 20.1721 18.598C20.1721 17.3575 20.0766 17.3098 17.7864 17.3098H15.4007V18.9797C15.4007 23.274 19.7426 29.906 23.9891 32.1009L25.659 32.9597L24.3231 33.2937C22.0329 33.914 17.6433 33.246 15.0668 31.91L12.6334 30.7172L11.3929 32.3394C10.7249 33.1983 10.1523 34.1525 10.1523 34.4388C10.1523 35.1545 14.2556 37.1108 17.2616 37.8264C18.8361 38.2082 21.2695 38.3513 23.5597 38.1604C25.659 38.0174 27.329 38.065 27.329 38.2559C27.329 38.4467 26.5179 39.3533 25.5636 40.3076C23.5119 42.3115 20.0766 43.9815 18.1681 44.0292C16.8799 44.0292 16.8322 44.1247 16.8322 46.4625V48.9437L19.1224 48.6574C23.846 48.0848 28.8558 45.0311 31.146 41.2141C31.814 40.1644 32.5297 39.2579 32.7683 39.2579C32.9591 39.2579 33.0545 41.0233 32.9591 43.1703C32.8637 46.1762 32.5297 47.7031 31.6232 49.4208L30.4781 51.7587L32.1003 53.0947C33.5794 54.3352 33.8657 54.383 34.5813 53.7627C35.0108 53.3333 35.8696 51.9018 36.4898 50.5659C37.4442 48.4188 37.5873 47.3214 37.5873 42.5023C37.5873 37.731 37.6827 37.0153 38.303 37.3493C40.5932 38.5899 43.5037 43.4566 43.5514 46.0331C43.5514 47.3214 43.6468 47.3691 45.9848 47.3691H48.4658L48.1319 44.6972C47.9887 43.2657 47.3207 41.071 46.7004 39.8304C45.5553 37.5401 41.8337 33.7231 39.7344 32.578L38.5893 31.9577L39.7344 31.5283C41.6429 30.7649 46.8913 31.5283 49.277 32.8643L51.424 34.0571L52.7123 32.4826C53.428 31.6237 54.0482 30.6694 54.0482 30.3355C54.0482 29.4767 49.1815 27.3296 45.7939 26.7093C43.6946 26.3753 41.7383 26.3276 39.5912 26.6616L36.4422 27.1387L37.2533 25.755C38.303 23.9896 41.786 21.6994 43.9808 21.3177C46.8436 20.8406 46.8913 20.8406 46.8913 18.3118V15.926L45.1259 16.2123C39.782 16.9281 35.0585 19.8862 32.7206 23.8465C31.6709 25.7073 31.4323 25.8981 31.0029 25.1825C30.2395 23.7511 30.9074 17.7869 32.148 15.2581L33.2931 12.9201L31.6232 11.5365C30.7166 10.8208 29.8578 10.1528 29.7147 10.1528C29.5715 10.1528 28.9989 10.8684 28.4264 11.775Z" fill="white"/>
<defs>
<filter id="filter0_f_5239_6459" x="5.24521e-05" y="6.67572e-06" width="64.2016" height="64.3056" filterUnits="userSpaceOnUse" color-interpolation-filters="sRGB">
<feFlood flood-opacity="0" result="BackgroundImageFix"/>
<feBlend mode="normal" in="SourceGraphic" in2="BackgroundImageFix" result="shape"/>
<feGaussianBlur stdDeviation="5.07639" result="effect1_foregroundBlur_5239_6459"/>
</filter>
</defs>
</svg>
