<svg width="342" height="203" viewBox="0 0 342 203" fill="none" xmlns="http://www.w3.org/2000/svg">
<path opacity="0.5" d="M256.965 202.197C258.958 202.713 260.697 202.558 262.44 201.824C263.946 201.191 265.442 200.13 267.104 198.738L267.827 198.122L267.841 198.11L267.854 198.098C270.244 195.707 273.786 190.583 277.559 184.272C281.341 177.947 285.383 170.384 288.773 163.081L288.777 163.073L289.73 160.903C294.367 150.207 297.112 141.653 298.705 129.885C300.402 117.354 300.792 101.185 300.792 74.9043C300.792 48.8644 301.053 33.9411 302.153 25.9805C302.428 23.9945 302.753 22.4613 303.131 21.3066C303.511 20.146 303.933 19.4087 304.376 18.9727C304.799 18.5561 305.258 18.3971 305.797 18.4238C306.364 18.452 307.042 18.6882 307.862 19.1299C320.233 25.8313 334.36 42.3916 345.474 60.8486C356.584 79.3013 364.594 99.503 364.855 113.422L364.859 114.699C364.878 117.595 364.982 119.915 365.431 121.747C365.953 123.881 366.954 125.395 368.824 126.418C370.649 127.417 373.264 127.925 376.957 128.194C380.663 128.464 385.53 128.496 391.901 128.496H419.534L419.464 127.935L415.821 98.7988C414.253 83.1182 406.948 59.1153 400.156 45.5322C393.876 32.9713 380.561 16.271 365.976 1.16504C351.391 -13.9403 335.473 -27.5168 323.954 -33.7998L323.953 -33.8008L312.425 -40.0449L323.891 -44.3447L323.9 -44.3477V-44.3486C329.022 -46.3972 336.433 -47.4364 345.114 -47.5986C353.784 -47.7607 363.679 -47.0476 373.743 -45.6191C393.885 -42.7603 414.637 -37.0457 427.572 -29.8018L427.573 -29.8008L450.997 -16.7881L451.362 -16.5859L451.626 -16.9092L465.677 -34.082C469.592 -38.78 473.249 -43.743 475.931 -47.9941C477.271 -50.1189 478.373 -52.0742 479.142 -53.7354C479.901 -55.3761 480.367 -56.7965 480.367 -57.8252C480.367 -59.2088 479.406 -60.7255 477.87 -62.2881C476.31 -63.8749 474.059 -65.6073 471.268 -67.4258C465.681 -71.0656 457.862 -75.0961 448.903 -79.0381C430.985 -86.922 408.435 -94.4839 389.909 -97.876L389.898 -97.8779C366.951 -101.529 345.557 -102.051 322.076 -98.3984V-98.3975L288.761 -93.3496L297.078 -107.538C302.746 -117.07 315.033 -128.081 328.935 -137.24C342.83 -146.396 358.247 -153.642 370.121 -155.708H370.122C377.92 -157.008 383.836 -157.988 388.304 -159.158C392.769 -160.328 395.87 -161.706 397.983 -163.854C400.108 -166.013 401.174 -168.885 401.718 -172.896C402.26 -176.898 402.291 -182.108 402.291 -188.993V-215.606L401.711 -215.512L382.455 -212.389C324.035 -204.561 272.362 -172.219 246.77 -128.868L246.765 -128.86C243.903 -123.787 241.6 -119.863 239.683 -116.95C237.758 -114.026 236.25 -112.167 234.986 -111.181C234.36 -110.692 233.821 -110.441 233.348 -110.361C232.886 -110.284 232.447 -110.363 231.994 -110.608C231.048 -111.12 230.069 -112.334 228.9 -114.28C226.88 -118.073 225.773 -124.96 225.497 -133.681C225.222 -142.377 225.773 -152.811 227.007 -163.627C229.477 -185.274 234.674 -208.369 241.403 -222.086L253.896 -247.591L254.068 -247.944L253.766 -248.195L235.548 -263.29L235.538 -263.298C230.594 -267.201 225.774 -270.979 221.993 -273.782C220.104 -275.183 218.467 -276.346 217.2 -277.16C216.568 -277.567 216.018 -277.892 215.571 -278.118C215.348 -278.231 215.141 -278.323 214.957 -278.388C214.781 -278.45 214.59 -278.5 214.408 -278.5C214.213 -278.5 214.024 -278.441 213.857 -278.366C213.686 -278.29 213.508 -278.182 213.325 -278.055C212.961 -277.8 212.543 -277.435 212.082 -276.982C211.159 -276.076 210.022 -274.772 208.747 -273.171C206.196 -269.966 203.062 -265.526 199.932 -260.569V-260.568C179.56 -228.703 170.704 -187.47 173.31 -134.315V-134.31C174.612 -112.686 174.996 -100.774 174.159 -94.7852C173.951 -93.294 173.671 -92.2038 173.327 -91.4346C172.984 -90.6676 172.598 -90.2617 172.198 -90.0664C171.801 -89.8721 171.305 -89.8446 170.653 -90.0127C169.997 -90.1821 169.229 -90.5378 168.331 -91.0508L168.317 -91.0586C155.686 -97.7607 141.43 -114.192 130.253 -132.646C119.077 -151.1 111.065 -171.438 110.807 -185.879C110.807 -189.245 110.743 -191.876 110.238 -193.896C109.723 -195.959 108.737 -197.423 106.9 -198.412C105.109 -199.377 102.544 -199.869 98.9238 -200.13C95.2915 -200.392 90.5231 -200.424 84.2812 -200.424H57.7559V-181.706C57.7559 -158.143 69.6557 -128.247 87.3115 -101.274C104.971 -74.2962 128.452 -50.1471 151.718 -38.1221H151.719L168.755 -29.3604L155.47 -26.0391L155.46 -26.0361C143.065 -22.6792 124.926 -22.7993 106.347 -25.5928C87.7755 -28.385 68.8338 -33.8373 54.8428 -41.0918L54.832 -41.0977L28.2861 -54.1104L27.918 -54.29L27.6689 -53.9648L14.1357 -36.2676V-36.2666C10.4823 -31.5689 7.08813 -26.6087 4.60449 -22.4258C3.36281 -20.3345 2.34378 -18.4297 1.63379 -16.8447C0.935003 -15.2846 0.50003 -13.9602 0.5 -13.0615C0.5 -12.4564 0.715937 -11.8287 1.07715 -11.1973C1.43977 -10.5634 1.96478 -9.89699 2.62598 -9.20605C3.94811 -7.82444 5.85698 -6.29802 8.22461 -4.67871C12.9634 -1.43768 19.6089 2.21899 27.2656 5.86816C42.5794 13.1666 62.0008 20.4671 78.4375 24.3809C95.6783 28.5605 122.277 30.1212 147.296 28.0371C158.737 27.2571 169.001 26.9977 176.398 27.1924C180.1 27.2898 183.068 27.5001 185.103 27.8125C186.124 27.9694 186.883 28.1483 187.375 28.3389C187.623 28.4349 187.771 28.5225 187.85 28.5889C187.863 28.5999 187.87 28.611 187.877 28.6182C187.862 28.7587 187.778 29.0348 187.542 29.4756C187.294 29.9384 186.922 30.5165 186.432 31.1992C185.453 32.5632 184.033 34.3063 182.28 36.3184C178.778 40.3395 173.973 45.4044 168.774 50.6035C157.628 61.4902 142.71 71.4822 127.977 78.8164C113.231 86.1565 98.7345 90.803 88.4326 91.0605V91.0615C84.9381 91.0617 82.2118 91.1233 80.1201 91.6357C77.9863 92.1585 76.4725 93.1592 75.4492 95.0293C74.4507 96.8542 73.9429 99.4688 73.6738 103.162C73.4039 106.868 73.3711 111.735 73.3711 118.106V145.739L98.918 142.546H98.917C150.578 136.284 205.37 102.901 230.445 61.1191C234.082 55.4044 237.845 50.0862 241.017 46.2021C242.604 44.2588 244.034 42.686 245.22 41.6035C245.813 41.0618 246.334 40.6528 246.773 40.3828C247.191 40.1266 247.486 40.027 247.675 40.0127C247.684 40.0211 247.698 40.0318 247.714 40.0508C247.787 40.139 247.881 40.3021 247.985 40.5664C248.192 41.0907 248.393 41.8945 248.578 42.9697C248.947 45.1118 249.239 48.2285 249.434 52.0928C249.823 59.8156 249.824 70.4693 249.304 82.1689L249.303 82.1758C248.263 114.927 244.627 131.499 234.786 150.145L234.783 150.151L234.779 150.158L222.287 175.663L222.113 176.018L222.419 176.269L240.116 190.843C244.15 194.226 247.385 196.809 250.089 198.669C252.79 200.527 254.994 201.688 256.965 202.197Z" stroke="#254AF6"/>
</svg>
