<svg width="2001" height="2006" viewBox="0 0 2001 2006" fill="none" xmlns="http://www.w3.org/2000/svg">
<path opacity="0.5" d="M832.859 74.1629C748.076 206.772 711.12 378.511 721.989 600.25C732.859 780.685 728.511 800.25 698.076 782.859C591.554 726.337 458.946 506.772 456.772 385.032C456.772 328.511 452.424 326.337 348.076 326.337H239.38V402.424C239.38 598.076 437.207 900.25 630.685 1000.25L706.772 1039.38L645.902 1054.6C541.554 1082.86 341.554 1052.42 224.163 991.554L113.293 937.206L56.7717 1011.12C26.337 1050.25 0.25 1093.73 0.25 1106.77C0.25 1139.38 187.207 1228.51 324.163 1261.12C395.902 1278.51 506.772 1285.03 611.12 1276.34C706.772 1269.82 782.859 1271.99 782.859 1280.68C782.859 1289.38 745.902 1330.68 702.424 1374.16C608.946 1465.47 452.424 1541.55 365.467 1543.73C306.772 1543.73 304.598 1548.08 304.598 1654.6V1767.64L408.946 1754.6C624.163 1728.51 852.424 1589.38 956.772 1415.47C987.207 1367.64 1019.82 1326.34 1030.68 1326.34C1039.38 1326.34 1043.73 1406.77 1039.38 1504.6C1035.03 1641.55 1019.82 1711.12 978.511 1789.38L926.337 1895.9L1000.25 1956.77C1067.64 2013.29 1080.68 2015.47 1113.29 1987.21C1132.86 1967.64 1171.99 1902.42 1200.25 1841.55C1243.73 1743.73 1250.25 1693.73 1250.25 1474.16C1250.25 1256.77 1254.6 1224.16 1282.86 1239.38C1387.21 1295.9 1519.82 1517.64 1521.99 1635.03C1521.99 1693.73 1526.34 1695.9 1632.86 1695.9H1745.9L1730.68 1574.16C1724.16 1508.95 1693.73 1408.95 1665.47 1352.42C1613.29 1248.08 1443.73 1074.16 1348.08 1021.99L1295.9 993.728L1348.08 974.163C1435.03 939.38 1674.16 974.163 1782.86 1035.03L1880.68 1089.38L1939.38 1017.64C1971.99 978.511 2000.25 935.033 2000.25 919.815C2000.25 880.685 1778.51 782.859 1624.16 754.598C1528.51 739.38 1439.38 737.206 1341.55 752.424L1198.08 774.163L1235.03 711.119C1282.86 630.685 1441.55 526.337 1541.55 508.945C1671.99 487.206 1674.16 487.206 1674.16 371.989V263.293L1593.73 276.337C1350.25 308.945 1135.03 443.728 1028.51 624.163C980.685 708.946 969.815 717.641 950.25 685.033C915.467 619.815 945.902 348.076 1002.42 232.859L1054.6 126.337L978.511 63.2934C937.206 30.6847 898.076 0.249933 891.554 0.249933C885.033 0.249933 858.946 32.8586 832.859 74.1629Z" stroke="white" stroke-width="0.5"/>
</svg>
