<svg width="481" height="482" viewBox="0 0 481 482" fill="none" xmlns="http://www.w3.org/2000/svg">
<path opacity="0.5" d="M256.965 481.197C258.958 481.713 260.697 481.558 262.44 480.824C263.946 480.191 265.442 479.13 267.104 477.738L267.827 477.122L267.841 477.11L267.854 477.098C270.244 474.707 273.786 469.583 277.559 463.272C281.341 456.947 285.383 449.384 288.773 442.081L288.777 442.073L289.73 439.903C294.367 429.207 297.112 420.653 298.705 408.885C300.402 396.354 300.792 380.185 300.792 353.904C300.792 327.864 301.053 312.941 302.153 304.98C302.428 302.995 302.753 301.461 303.131 300.307C303.511 299.146 303.933 298.409 304.376 297.973C304.799 297.556 305.258 297.397 305.797 297.424C306.364 297.452 307.042 297.688 307.862 298.13C320.233 304.831 334.36 321.392 345.474 339.849C356.584 358.301 364.594 378.503 364.855 392.422L364.859 393.699C364.878 396.595 364.982 398.915 365.431 400.747C365.953 402.881 366.954 404.395 368.824 405.418C370.649 406.417 373.264 406.925 376.957 407.194C380.663 407.464 385.53 407.496 391.901 407.496H419.534L419.464 406.935L415.821 377.799C414.253 362.118 406.948 338.115 400.156 324.532C393.876 311.971 380.561 295.271 365.976 280.165C351.391 265.06 335.473 251.483 323.954 245.2L323.953 245.199L312.425 238.955L323.891 234.655L323.9 234.652V234.651C329.022 232.603 336.433 231.564 345.114 231.401C353.784 231.239 363.679 231.952 373.743 233.381C393.885 236.24 414.637 241.954 427.572 249.198L427.573 249.199L450.997 262.212L451.362 262.414L451.626 262.091L465.677 244.918C469.592 240.22 473.249 235.257 475.931 231.006C477.271 228.881 478.373 226.926 479.142 225.265C479.901 223.624 480.367 222.203 480.367 221.175C480.367 219.791 479.406 218.274 477.87 216.712C476.31 215.125 474.059 213.393 471.268 211.574C465.681 207.934 457.862 203.904 448.903 199.962C430.985 192.078 408.435 184.516 389.909 181.124L389.898 181.122C366.951 177.471 345.557 176.949 322.076 180.602V180.603L288.761 185.65L297.078 171.462C302.746 161.93 315.033 150.919 328.935 141.76C342.83 132.604 358.247 125.358 370.121 123.292H370.122C377.92 121.992 383.836 121.013 388.304 119.843C392.769 118.673 395.87 117.294 397.983 115.146C400.108 112.988 401.174 110.116 401.718 106.104C402.26 102.103 402.291 96.8925 402.291 90.0068V63.3936L401.711 63.4883L382.455 66.6113C324.035 74.4387 272.362 106.781 246.77 150.132L246.765 150.14C243.903 155.213 241.6 159.137 239.683 162.05C237.758 164.974 236.25 166.833 234.986 167.819C234.36 168.308 233.821 168.559 233.348 168.639C232.886 168.716 232.447 168.637 231.994 168.392C231.048 167.88 230.069 166.666 228.9 164.72C226.88 160.927 225.773 154.04 225.497 145.319C225.222 136.623 225.773 126.189 227.007 115.373C229.477 93.7263 234.675 70.6316 241.403 56.915V56.9141L253.896 31.4092L254.068 31.0557L253.766 30.8047L235.548 15.71L235.538 15.7021C230.594 11.799 225.774 8.02064 221.993 5.21777C220.104 3.81702 218.467 2.65411 217.2 1.83984C216.568 1.43332 216.018 1.10759 215.571 0.881836C215.348 0.769032 215.141 0.677197 214.957 0.612305C214.781 0.55018 214.59 0.5 214.408 0.5C214.213 0.500013 214.024 0.559113 213.857 0.633789C213.686 0.710452 213.508 0.817635 213.325 0.945312C212.961 1.20042 212.543 1.56531 212.082 2.01758C211.159 2.92446 210.022 4.22782 208.747 5.8291C206.196 9.0345 203.062 13.4743 199.932 18.4307V18.4316C179.56 50.2973 170.704 91.5296 173.31 144.685V144.69C174.612 166.314 174.996 178.226 174.159 184.215C173.951 185.706 173.671 186.796 173.327 187.565C172.984 188.332 172.598 188.738 172.198 188.934C171.801 189.128 171.305 189.155 170.653 188.987C169.997 188.818 169.229 188.462 168.331 187.949L168.317 187.941C155.686 181.239 141.43 164.808 130.253 146.354C119.077 127.9 111.065 107.562 110.807 93.1211C110.807 89.7548 110.743 87.124 110.238 85.1035C109.723 83.0406 108.737 81.5769 106.9 80.5879C105.109 79.6233 102.544 79.131 98.9238 78.8701C95.2915 78.6083 90.5231 78.5762 84.2812 78.5762H57.7559V97.2939C57.7559 120.857 69.6557 150.753 87.3115 177.726C104.971 204.704 128.452 228.853 151.718 240.878H151.719L168.755 249.64L155.47 252.961L155.46 252.964C143.065 256.321 124.926 256.201 106.347 253.407C87.7755 250.615 68.8338 245.163 54.8428 237.908L54.832 237.902L28.2861 224.89L27.918 224.71L27.6689 225.035L14.1357 242.732V242.733C10.4823 247.431 7.08813 252.391 4.60449 256.574C3.36281 258.665 2.34378 260.57 1.63379 262.155C0.935003 263.715 0.50003 265.04 0.5 265.938C0.5 266.544 0.715937 267.171 1.07715 267.803C1.43977 268.437 1.96478 269.103 2.62598 269.794C3.94811 271.176 5.85698 272.702 8.22461 274.321C12.9634 277.562 19.6089 281.219 27.2656 284.868C42.5794 292.167 62.0008 299.467 78.4375 303.381C95.6783 307.56 122.277 309.121 147.296 307.037C158.737 306.257 169.001 305.998 176.398 306.192C180.1 306.29 183.068 306.5 185.103 306.812C186.124 306.969 186.883 307.148 187.375 307.339C187.623 307.435 187.771 307.523 187.85 307.589C187.863 307.6 187.87 307.611 187.877 307.618C187.862 307.759 187.777 308.035 187.541 308.476C187.293 308.938 186.922 309.517 186.432 310.199C185.453 311.563 184.033 313.306 182.28 315.318C178.778 319.34 173.973 324.404 168.774 329.604C157.628 340.49 142.71 350.482 127.977 357.816C113.231 365.157 98.7345 369.803 88.4326 370.061V370.062C84.9381 370.062 82.2118 370.123 80.1201 370.636C77.9863 371.158 76.4725 372.159 75.4492 374.029C74.4507 375.854 73.9429 378.469 73.6738 382.162C73.4039 385.868 73.3711 390.735 73.3711 397.106V424.739L98.918 421.546H98.917C150.578 415.284 205.37 381.901 230.445 340.119C234.082 334.404 237.845 329.086 241.017 325.202C242.604 323.259 244.034 321.686 245.22 320.604C245.813 320.062 246.334 319.653 246.773 319.383C247.191 319.127 247.486 319.027 247.675 319.013C247.684 319.021 247.698 319.032 247.714 319.051C247.787 319.139 247.881 319.302 247.985 319.566C248.192 320.091 248.393 320.895 248.578 321.97C248.947 324.112 249.239 327.229 249.434 331.093C249.823 338.816 249.824 349.469 249.304 361.169L249.303 361.176C248.263 393.927 244.627 410.499 234.786 429.145L234.783 429.151L234.779 429.158L222.287 454.663L222.113 455.018L222.419 455.269L240.116 469.843C244.15 473.226 247.385 475.809 250.089 477.669C252.79 479.527 254.994 480.688 256.965 481.197Z" stroke="#254AF6"/>
</svg>
