<svg width="64" height="64" viewBox="0 0 64 64" fill="none" xmlns="http://www.w3.org/2000/svg">
<path d="M0 35.7941C0 20.0501 14.7984 9.55411 30.1028 12.2421V22.8661C22.1344 21.4581 16.0632 23.7621 14.0395 29.9061C15.0514 29.6501 16.0632 29.5221 16.9486 29.5221C23.2727 29.5221 27.9526 34.3861 27.9526 40.4021C27.9526 47.3141 22.7668 52.1781 14.6719 52.1781C6.07115 52.1781 0 46.2901 0 35.7941ZM33.8972 35.7941C33.8972 20.0501 48.6957 9.55411 64 12.2421V22.8661C56.0316 21.4581 49.9605 23.7621 47.9368 29.9061C48.9486 29.6501 49.9605 29.5221 50.8459 29.5221C57.17 29.5221 61.8498 34.3861 61.8498 40.4021C61.8498 47.3141 56.664 52.1781 48.5692 52.1781C39.9684 52.1781 33.8972 46.2901 33.8972 35.7941Z" fill="#F8F9FC"/>
</svg>
